<?xml version="1.0" standalone="no"?>
<!DOCTYPE svg PUBLIC "-//W3C//DTD SVG 20010904//EN"
 "http://www.w3.org/TR/2001/REC-SVG-20010904/DTD/svg10.dtd">
<svg version="1.0" xmlns="http://www.w3.org/2000/svg"
 width="700.000000pt" height="700.000000pt" viewBox="0 0 700.000000 700.000000"
 preserveAspectRatio="xMidYMid meet">
<metadata>
Created by potrace 1.14, written by Peter Selinger 2001-2017
</metadata>
<g transform="translate(0.000000,700.000000) scale(0.100000,-0.100000)"
fill="#000000" stroke="none">
<path d="M3405 6624 c-9 -14 -15 -15 -32 -6 -14 8 -31 8 -57 1 -33 -9 -35 -12
-21 -25 8 -9 13 -20 9 -25 -3 -5 2 -12 10 -15 9 -3 16 -12 16 -20 0 -11 29
-34 43 -34 2 0 7 23 11 50 5 39 11 50 24 50 19 0 42 18 42 32 0 15 -35 8 -45
-8z"/>
<path d="M3567 6623 c-11 -18 2 -94 22 -132 11 -23 21 -50 21 -60 0 -20 -24
-44 -55 -56 l-20 -7 20 -8 c27 -12 75 -12 75 -1 0 14 43 21 57 9 21 -17 16
-41 -7 -35 -28 7 -33 -7 -11 -27 11 -10 22 -33 25 -51 11 -55 30 -56 24 -2 -4
38 -2 50 14 64 18 16 48 64 48 77 0 3 -11 13 -25 22 -23 15 -27 15 -43 1 -9
-8 -30 -17 -47 -19 l-30 -3 -1 82 c0 69 -4 87 -25 117 -24 36 -34 42 -42 29z"/>
<path d="M3046 6522 c1 -111 -1 -108 35 -77 17 14 37 24 43 22 6 -2 23 -25 37
-51 l26 -48 7 42 c8 52 -16 110 -47 110 -11 0 -35 16 -53 35 -17 19 -36 35
-40 35 -5 0 -9 -30 -8 -68z"/>
<path d="M3976 6548 l-41 -42 30 -6 c19 -4 36 -1 46 7 8 7 36 13 61 13 41 0
78 20 78 43 0 14 -51 6 -56 -8 -10 -24 -43 -18 -54 10 -5 14 -12 25 -16 25 -3
0 -25 -19 -48 -42z"/>
<path d="M2845 6553 c-35 -9 -38 -20 -16 -56 19 -31 20 -37 6 -50 -19 -20 -19
-32 2 -68 14 -23 22 -27 41 -22 28 7 42 -9 42 -49 0 -23 4 -28 26 -28 25 0 26
2 21 35 -4 25 -2 37 10 44 19 10 29 103 14 128 -8 14 -10 7 -11 -31 0 -49 0
-49 -20 -31 -11 10 -26 38 -32 62 -9 37 -40 76 -58 72 -3 -1 -14 -3 -25 -6z"/>
<path d="M2755 6476 c-4 -30 -3 -62 3 -71 8 -15 12 -10 23 26 17 51 14 99 -6
99 -9 0 -16 -18 -20 -54z"/>
<path d="M4255 6510 c-4 -6 9 -10 33 -10 21 0 42 -3 45 -7 4 -3 17 -7 30 -9
12 -1 51 -5 86 -9 53 -7 63 -6 59 6 -7 22 -241 49 -253 29z"/>
<path d="M2239 6381 c-89 -56 -139 -135 -139 -221 0 -32 -1 -33 -17 -17 -12
12 -18 36 -19 84 -2 52 -6 69 -18 71 -9 2 -16 -3 -16 -10 0 -8 -18 -18 -42
-24 -40 -8 -43 -11 -41 -39 2 -16 6 -75 11 -130 13 -148 -8 -218 -92 -312 -38
-42 -56 -53 -107 -67 -43 -13 -74 -29 -103 -56 -22 -21 -38 -41 -35 -44 3 -4
47 16 97 42 89 47 136 79 192 132 30 27 120 63 120 48 0 -6 10 -8 23 -5 36 10
53 -7 39 -37 -8 -19 -8 -27 0 -32 7 -4 14 -1 16 7 8 24 82 89 102 89 11 0 20
5 20 11 0 7 -9 9 -23 5 -12 -3 -35 1 -51 9 -33 17 -66 20 -66 5 0 -13 -37 -13
-45 -1 -14 23 45 102 87 116 13 5 16 13 11 36 -6 33 20 63 46 53 17 -6 81 14
81 26 0 5 24 12 53 17 49 8 52 10 49 36 -4 34 13 57 42 57 16 0 24 -10 34 -40
6 -22 12 -49 12 -60 0 -29 -32 -93 -57 -113 -25 -20 -29 -47 -12 -78 10 -19
13 -18 48 22 49 55 66 47 56 -27 -5 -46 -4 -54 14 -63 11 -6 29 -11 41 -11 29
0 107 -65 125 -104 7 -17 19 -50 25 -74 6 -24 19 -46 28 -49 9 -3 25 -13 34
-20 9 -8 21 -12 26 -9 14 8 24 69 13 76 -9 5 -43 62 -92 157 -22 41 -24 42
-73 41 -42 0 -54 4 -73 27 -37 42 -23 91 15 53 9 -9 12 -4 12 26 0 34 2 38 21
33 15 -4 23 1 30 20 13 34 5 39 -34 25 -19 -7 -38 -12 -43 -12 -9 0 -34 89
-34 123 0 10 -11 23 -25 29 -13 6 -27 20 -31 31 -3 11 -20 33 -36 49 -28 27
-31 28 -47 14 -16 -15 -21 -15 -54 -1 -36 15 -37 17 -37 65 0 28 -3 50 -7 50
-5 0 -29 -13 -54 -29z m91 -129 c0 -10 -3 -22 -7 -26 -4 -4 -6 -23 -4 -42 1
-18 -2 -34 -7 -34 -5 0 -23 -3 -39 -6 -26 -5 -29 -3 -28 20 1 14 9 34 18 44 9
10 17 25 17 34 0 20 9 28 32 28 11 0 18 -7 18 -18z m-330 -77 c0 -8 -4 -17
-10 -20 -6 -4 -10 5 -10 20 0 15 4 24 10 20 6 -3 10 -12 10 -20z"/>
<path d="M4100 6360 c-86 -41 -116 -50 -165 -52 -50 -1 -53 -2 -17 -5 63 -6
50 -33 -16 -33 -20 0 -23 -3 -13 -9 11 -7 3 -15 -30 -32 -42 -22 -43 -23 -19
-29 40 -11 71 -1 119 38 70 57 100 76 174 110 37 17 77 38 89 47 49 34 -18 15
-122 -35z"/>
<path d="M2362 6358 c19 -27 23 -29 26 -15 6 29 -6 47 -28 47 -21 0 -21 0 2
-32z"/>
<path d="M2726 6279 c2 -93 8 -107 40 -101 31 6 30 22 -9 106 l-32 69 1 -74z"/>
<path d="M3190 6309 c-15 -27 3 -100 31 -125 11 -9 19 -23 19 -31 0 -7 9 -13
20 -13 28 0 25 19 -11 74 -21 31 -30 55 -27 71 7 35 -17 53 -32 24z"/>
<path d="M3010 6308 c0 -7 9 -26 20 -43 19 -28 20 -29 20 -7 0 28 -17 62 -30
62 -6 0 -10 -6 -10 -12z"/>
<path d="M3080 6290 c0 -8 5 -32 10 -52 15 -52 0 -78 -44 -78 -22 0 -36 -6
-40 -16 -5 -13 -10 -13 -35 5 -36 26 -37 26 -44 2 -5 -21 10 -31 47 -31 12 0
33 -11 46 -25 13 -14 29 -25 37 -25 7 0 31 -7 53 -16 32 -13 42 -23 47 -45 3
-16 10 -32 14 -35 18 -10 8 -43 -21 -74 l-30 -32 32 -44 c24 -34 38 -44 59
-44 27 0 44 14 44 35 0 23 43 15 64 -11 12 -15 24 -24 27 -21 13 12 -19 78
-47 98 -39 27 -38 55 1 61 17 3 30 0 30 -6 0 -19 45 -76 61 -76 10 0 19 16 26
48 6 26 17 61 24 79 16 38 6 53 -19 30 -23 -21 -46 -22 -62 -2 -7 9 -19 14
-27 11 -8 -3 -13 2 -13 12 0 10 -6 27 -14 38 -14 18 -15 18 -21 2 -11 -27 -24
-22 -42 17 -20 42 -29 44 -45 10 -7 -15 -17 -24 -25 -21 -8 3 -11 2 -8 -3 3
-5 1 -12 -5 -16 -5 -3 -10 2 -10 12 0 10 -9 24 -19 30 -15 10 -20 27 -22 92
-3 46 -9 85 -17 93 -9 9 -12 9 -12 -2z m223 -277 c-7 -2 -19 -2 -25 0 -7 3 -2
5 12 5 14 0 19 -2 13 -5z"/>
<path d="M3325 6272 c-12 -12 -3 -20 25 -24 17 -3 31 0 34 8 4 12 -49 26 -59
16z"/>
<path d="M2986 6240 c20 -43 24 -47 24 -29 0 8 -10 25 -21 39 l-20 25 17 -35z"/>
<path d="M4660 6249 c-9 -11 -26 -19 -44 -19 -16 0 -38 -7 -48 -16 -10 -10
-35 -17 -58 -17 -53 0 -47 -21 7 -25 24 -2 46 2 54 10 8 8 28 20 45 27 40 16
67 2 90 -48 15 -31 15 -41 0 -121 -9 -48 -16 -104 -16 -124 0 -43 -11 -45 -59
-7 -54 42 -96 61 -152 68 -32 4 -55 12 -61 23 -7 11 -19 15 -34 12 -13 -2 -31
1 -38 7 -11 9 -25 10 -52 2 -59 -16 -70 -1 -29 39 l35 34 24 -23 c17 -16 26
-19 31 -11 4 7 20 10 36 8 27 -4 29 -2 29 27 0 31 -2 32 -52 38 -28 4 -54 11
-58 17 -4 7 -16 3 -32 -10 -15 -11 -31 -20 -36 -20 -6 0 -16 -15 -22 -34 -11
-34 -41 -57 -48 -36 -2 6 -22 -6 -44 -26 -68 -61 -117 -77 -219 -72 l-88 4 -7
-30 c-12 -53 -10 -87 8 -102 18 -17 20 -15 37 38 16 49 31 60 61 45 34 -17 35
-33 2 -46 -38 -16 -60 -86 -31 -101 15 -8 26 0 65 47 53 66 106 104 182 133
84 32 128 27 281 -28 34 -12 68 -18 91 -15 36 5 39 4 51 -31 10 -28 17 -35 32
-30 11 4 44 -10 89 -37 150 -89 205 -179 194 -321 -4 -65 -3 -78 9 -78 8 0 15
5 15 10 0 6 7 10 15 10 8 0 15 9 15 20 0 31 28 36 56 10 33 -32 30 -50 -11
-83 -20 -16 -33 -32 -30 -37 3 -5 -8 -18 -25 -30 -35 -25 -39 -50 -10 -50 13
0 28 12 38 30 9 16 27 35 39 41 13 7 25 19 28 28 8 26 90 71 145 80 28 4 52
10 55 12 2 3 -6 20 -17 38 l-21 33 -14 -26 c-17 -33 -28 -33 -49 -1 -13 20
-15 40 -10 103 6 75 6 76 -10 48 -14 -24 -15 -46 -10 -117 l7 -87 -25 6 c-14
4 -46 27 -73 51 -50 47 -83 116 -83 176 0 48 -11 77 -26 71 -8 -3 -14 1 -14 9
0 7 -9 16 -20 20 -11 3 -32 25 -47 47 -18 27 -36 42 -51 43 -12 1 -28 7 -34
13 -13 13 -11 104 2 112 4 3 11 20 15 39 7 33 8 33 49 27 22 -4 51 -14 63 -22
28 -18 33 -18 33 2 0 9 -20 24 -47 36 -63 27 -81 44 -89 83 -8 42 -46 119 -60
122 -6 1 -17 -7 -24 -18z"/>
<path d="M4990 6250 c0 -11 6 -20 14 -20 19 0 46 -39 46 -66 0 -29 40 -124 52
-124 13 0 1 65 -19 104 -11 20 -12 35 -6 45 15 24 5 40 -38 61 -47 25 -49 25
-49 0z"/>
<path d="M3575 6160 c0 -22 3 -40 8 -40 4 0 7 18 7 40 0 22 -4 40 -8 40 -4 0
-8 -18 -7 -40z"/>
<path d="M5110 6161 c0 -12 29 -35 36 -28 11 10 -5 37 -21 37 -8 0 -15 -4 -15
-9z"/>
<path d="M3559 6083 c-14 -37 -8 -67 15 -71 16 -3 18 0 12 25 -4 15 -7 38 -7
51 1 30 -7 28 -20 -5z"/>
<path d="M3760 6022 c0 -15 38 -44 51 -40 9 3 6 11 -9 26 -22 22 -42 29 -42
14z"/>
<path d="M5108 6025 c-2 -3 8 -42 24 -87 15 -46 28 -103 28 -128 0 -25 4 -61
9 -80 5 -19 12 -61 16 -93 6 -54 8 -57 28 -51 42 12 42 20 4 101 -5 12 -7 45
-4 73 3 27 2 50 -2 50 -5 0 -12 11 -15 25 -13 52 -68 195 -75 195 -4 0 -10 -2
-13 -5z"/>
<path d="M5290 6015 c0 -8 5 -15 10 -15 6 0 10 7 10 15 0 8 -4 15 -10 15 -5 0
-10 -7 -10 -15z"/>
<path d="M2640 6000 c0 -6 7 -10 15 -10 8 0 15 2 15 4 0 2 -7 6 -15 10 -8 3
-15 1 -15 -4z"/>
<path d="M5336 5972 c-3 -5 4 -24 16 -43 12 -19 27 -56 33 -84 l13 -50 1 41
c1 22 -2 44 -6 48 -4 4 -6 27 -4 51 2 42 1 45 -23 45 -13 0 -27 -4 -30 -8z"/>
<path d="M4784 5915 c-8 -46 1 -68 25 -60 11 3 29 0 40 -7 31 -19 48 2 32 40
-10 23 -63 62 -86 62 -2 0 -7 -16 -11 -35z"/>
<path d="M3697 5870 c3 -25 7 -47 9 -49 8 -9 2 55 -6 74 -6 13 -7 5 -3 -25z"/>
<path d="M2412 5838 c-12 -6 -37 -34 -54 -62 -31 -50 -35 -68 -52 -221 -9 -80
-25 -165 -34 -182 -6 -9 -27 -22 -49 -28 -25 -7 -39 -17 -41 -30 -2 -12 -19
-28 -43 -38 -48 -23 -50 -37 -5 -37 21 0 42 9 60 25 15 14 33 25 41 25 7 0 22
10 32 23 24 30 82 50 100 36 7 -6 13 -18 13 -26 0 -23 56 -73 82 -73 37 0 98
56 98 89 0 25 -7 32 -49 50 -46 19 -51 20 -86 5 -51 -21 -68 -4 -26 27 17 12
31 30 31 38 -1 11 -10 5 -29 -16 -21 -25 -36 -33 -60 -33 -28 0 -32 3 -26 18
10 24 22 80 39 192 11 68 25 114 50 162 19 38 33 68 33 67 -1 0 -12 -5 -25
-11z"/>
<path d="M4205 5777 c-22 -6 -43 -16 -47 -23 -4 -6 -20 -15 -35 -19 -15 -3
-32 -14 -38 -22 -8 -10 -29 -17 -59 -18 -61 -3 -65 -9 -16 -24 26 -8 46 -9 57
-2 12 6 24 4 40 -6 21 -14 23 -14 23 5 0 12 12 29 26 39 14 10 33 26 42 36 9
9 23 17 32 17 8 1 26 7 40 15 l25 14 -25 -1 c-14 0 -43 -5 -65 -11z"/>
<path d="M5410 5736 c0 -30 -4 -58 -10 -61 -5 -3 -10 -25 -10 -48 0 -37 -4
-45 -36 -66 -30 -21 -39 -23 -56 -12 -25 16 -30 10 -32 -36 -1 -21 -6 -51 -11
-67 l-8 -29 26 19 c14 10 28 27 30 36 7 25 74 55 157 68 77 12 87 19 118 82 2
3 -11 9 -27 13 -40 9 -66 43 -81 105 -10 43 -15 50 -36 50 -22 0 -24 -4 -24
-54z m58 -118 c8 -8 9 -15 1 -25 -18 -21 -39 -15 -39 12 0 27 18 33 38 13z"/>
<path d="M3270 5716 c0 -30 -5 -58 -10 -61 -6 -4 -8 -10 -5 -15 12 -20 -8 -42
-35 -38 -15 2 -27 -1 -28 -6 0 -6 -4 -28 -8 -48 -6 -36 6 -53 21 -28 8 14 45
13 45 -1 0 -6 -10 -19 -23 -29 -27 -21 -28 -70 -3 -117 14 -27 14 -27 9 21 -5
43 -3 51 21 72 14 14 26 21 26 16 0 -6 8 -12 18 -14 13 -4 21 -27 34 -103 16
-92 32 -125 51 -106 4 4 3 20 -2 34 -6 14 -6 29 -2 32 5 2 11 -4 14 -15 4 -15
14 -20 41 -20 31 0 40 -5 57 -35 27 -46 43 -45 34 1 -5 29 -2 40 14 55 19 18
19 20 3 48 -9 17 -26 34 -38 40 -12 5 -30 28 -40 50 -11 22 -25 41 -32 41 -7
0 -10 4 -7 10 3 5 1 20 -6 32 -7 12 -14 38 -16 58 -6 60 -37 173 -49 177 -6 2
-14 -5 -17 -17 -7 -26 -23 -26 -37 0 -19 35 -30 22 -30 -34z m56 -108 l-18
-52 33 -28 c18 -15 37 -28 41 -28 12 0 10 -38 -2 -45 -19 -12 -67 18 -80 49
-23 53 -29 76 -19 76 5 0 9 14 9 32 0 37 28 74 44 58 7 -7 5 -26 -8 -62z"/>
<path d="M3681 5734 c0 -11 3 -14 6 -6 3 7 2 16 -1 19 -3 4 -6 -2 -5 -13z"/>
<path d="M5130 5720 c-7 -17 -10 -33 -8 -36 3 -3 11 9 17 27 14 42 7 49 -9 9z"/>
<path d="M2053 5718 c-4 -7 -20 -37 -35 -65 -26 -52 -26 -53 -5 -53 19 0 117
93 117 111 0 3 -11 4 -25 1 -15 -2 -25 0 -25 7 0 15 -17 14 -27 -1z"/>
<path d="M3435 5691 c-9 -31 -3 -103 12 -133 7 -16 15 -28 18 -28 14 0 35 36
35 59 0 37 29 61 79 68 56 8 41 24 -19 22 -31 -2 -57 3 -74 14 -33 22 -43 21
-51 -2z"/>
<path d="M3865 5670 c-4 -6 0 -22 9 -35 9 -14 16 -45 16 -74 0 -27 5 -53 10
-56 6 -4 10 16 10 52 0 32 3 68 6 81 5 16 2 22 -10 22 -9 0 -16 5 -16 10 0 13
-17 13 -25 0z"/>
<path d="M5820 5579 c0 -11 5 -17 10 -14 6 3 10 13 10 21 0 8 -4 14 -10 14 -5
0 -10 -9 -10 -21z"/>
<path d="M2645 5540 c-21 -16 -41 -30 -46 -30 -4 0 -15 -3 -25 -7 -15 -5 -16
-2 -11 23 5 29 4 30 -23 26 -40 -6 -68 -38 -53 -60 8 -14 25 -17 80 -16 103 2
154 36 125 82 -7 9 -18 5 -47 -18z"/>
<path d="M5882 5558 c-7 -7 -22 -13 -35 -13 -15 0 -23 -7 -25 -22 -3 -19 1
-23 26 -23 35 0 55 20 50 50 -2 17 -5 19 -16 8z"/>
<path d="M1493 5548 c-24 -11 -31 -28 -12 -28 17 0 49 20 49 30 0 12 -9 12
-37 -2z"/>
<path d="M4464 5521 c-13 -47 0 -65 18 -27 7 17 8 33 2 47 -8 18 -11 16 -20
-20z"/>
<path d="M5701 5546 c11 -9 69 -14 69 -6 0 6 -16 10 -37 10 -20 0 -34 -2 -32
-4z"/>
<path d="M5637 5523 c-4 -3 -7 -11 -7 -17 0 -6 5 -5 12 2 6 6 9 14 7 17 -3 3
-9 2 -12 -2z"/>
<path d="M4675 5463 c-6 -33 -3 -40 20 -61 15 -13 31 -20 36 -15 7 7 -35 113
-45 113 -2 0 -7 -17 -11 -37z"/>
<path d="M1683 5427 c-13 -5 -23 -14 -23 -19 0 -13 37 -9 49 6 16 19 1 26 -26
13z"/>
<path d="M4350 5413 c0 -13 7 -26 15 -30 18 -6 20 -5 29 23 5 17 2 22 -19 26
-21 4 -25 2 -25 -19z"/>
<path d="M4430 5418 c1 -7 7 -26 14 -43 12 -29 13 -29 20 -7 4 12 4 31 1 42
-7 22 -35 28 -35 8z"/>
<path d="M5374 5402 c-6 -4 -13 -15 -17 -25 -6 -17 -6 -17 23 0 17 9 30 21 30
25 0 10 -21 10 -36 0z"/>
<path d="M3807 5373 c-16 -31 -12 -53 9 -53 10 0 14 12 14 40 0 47 -5 50 -23
13z"/>
<path d="M4030 5370 l-55 -7 63 -1 c36 -1 62 2 62 8 0 6 -3 9 -7 8 -5 -1 -33
-4 -63 -8z"/>
<path d="M4870 5330 c0 -13 5 -18 15 -14 8 4 15 10 15 14 0 4 -7 10 -15 14
-10 4 -15 -1 -15 -14z"/>
<path d="M5305 5335 c-3 -8 -7 -22 -10 -30 -2 -8 1 -17 7 -21 13 -8 38 23 38
48 0 22 -29 24 -35 3z"/>
<path d="M3240 5322 c0 -11 7 -22 15 -26 9 -3 15 0 15 8 0 7 -7 19 -15 26 -12
10 -15 9 -15 -8z"/>
<path d="M2622 5309 c1 -12 9 -24 16 -27 9 -3 13 3 10 19 -1 12 -9 24 -16 27
-9 3 -13 -3 -10 -19z"/>
<path d="M2898 5296 c-19 -14 -25 -56 -8 -56 6 0 25 -32 42 -71 30 -64 33 -68
40 -44 3 14 2 40 -3 58 -7 25 -6 34 7 44 13 10 12 13 -8 27 -12 9 -28 16 -34
16 -7 0 -10 8 -7 20 6 23 -4 25 -29 6z"/>
<path d="M2703 5277 c-24 -6 -43 -17 -43 -24 0 -10 8 -11 28 -7 37 9 62 23 62
34 0 6 -1 9 -2 9 -2 -1 -22 -7 -45 -12z"/>
<path d="M5580 5197 c0 -22 23 -37 57 -37 33 0 33 0 17 25 -18 27 -74 36 -74
12z"/>
<path d="M3518 5184 c-5 -4 -8 -19 -8 -33 0 -40 -14 -55 -38 -42 -22 12 -22
11 -38 -101 l-6 -48 30 6 c27 6 32 3 38 -20 8 -34 -5 -49 -88 -103 -38 -23
-68 -47 -68 -53 0 -5 -6 -10 -13 -10 -7 0 -28 -13 -47 -30 -33 -27 -100 -43
-100 -22 0 7 -77 32 -100 32 -25 0 -7 -31 21 -37 19 -4 35 -15 42 -31 10 -22
8 -27 -18 -48 -17 -13 -35 -24 -41 -24 -6 0 -21 -11 -34 -25 -13 -14 -29 -25
-35 -25 -7 0 -20 -9 -30 -20 -10 -11 -21 -17 -25 -15 -4 3 -14 -2 -21 -11 -15
-18 -73 -45 -139 -65 -25 -7 -58 -21 -75 -30 -45 -25 -110 -32 -125 -14 -7 8
-19 15 -27 15 -12 0 -13 7 -8 28 10 41 41 68 128 115 43 23 100 60 126 82 27
22 60 49 75 60 23 17 28 28 29 68 0 45 -3 51 -49 92 -47 42 -52 44 -111 45
-45 0 -78 -7 -118 -24 -30 -14 -55 -29 -55 -33 0 -16 91 -14 107 2 13 14 35
14 81 -1 23 -7 12 -50 -20 -81 -32 -30 -60 -47 -158 -94 -25 -12 -53 -30 -63
-41 -10 -10 -23 -16 -28 -12 -6 3 -13 -3 -16 -15 -3 -12 -8 -21 -12 -21 -4 0
-20 -23 -36 -50 -21 -36 -38 -53 -60 -59 -21 -7 -24 -9 -9 -10 29 -1 55 -23
57 -48 1 -16 17 -30 55 -49 l55 -28 86 16 c47 9 108 23 134 31 52 18 54 6 4
-19 -18 -9 -66 -42 -107 -74 -83 -63 -121 -87 -222 -137 -77 -38 -81 -38 -98
-18 -19 23 -31 18 -20 -9 8 -23 6 -26 -38 -40 -62 -21 -204 -39 -212 -27 -3 5
-18 13 -34 17 -17 4 -41 13 -55 20 -14 8 -34 14 -45 14 -15 0 -16 -3 -6 -15 7
-8 18 -15 24 -15 6 0 25 -7 41 -16 39 -20 108 -39 223 -59 82 -14 96 -14 120
-1 15 8 59 24 97 36 39 12 80 26 93 31 13 5 30 9 38 9 8 0 32 11 52 25 20 14
44 25 53 25 9 0 24 9 34 20 10 11 22 20 27 20 4 0 17 9 28 20 11 11 29 20 39
20 11 0 23 5 26 10 3 6 15 10 26 10 11 0 19 7 19 16 0 9 14 21 30 27 17 6 32
19 35 28 3 9 19 22 35 29 17 7 30 16 30 21 0 4 21 23 48 40 26 18 50 37 54 43
4 6 8 7 8 3 0 -4 13 7 29 25 16 18 46 42 66 52 20 11 52 35 71 53 20 18 43 33
51 33 9 0 44 -15 77 -34 34 -19 85 -42 114 -51 28 -10 52 -20 52 -24 0 -13
-18 -28 -104 -86 -178 -120 -208 -142 -219 -162 -7 -11 -22 -35 -35 -54 -32
-47 -25 -105 19 -148 17 -18 34 -30 37 -27 3 3 11 -2 17 -11 11 -15 8 -25 -18
-63 -17 -25 -34 -46 -39 -48 -4 -2 -8 -19 -8 -39 0 -34 -18 -63 -39 -63 -6 0
-11 21 -11 50 0 42 -3 50 -19 50 -10 0 -26 -11 -34 -24 -9 -13 -22 -30 -29
-38 -19 -20 -48 -77 -48 -94 0 -19 39 -18 61 2 10 9 25 14 34 11 19 -8 19 -41
0 -57 -17 -14 -21 -90 -5 -90 6 0 20 20 32 44 12 26 34 50 52 60 72 38 91 59
88 95 -6 58 56 181 90 181 5 0 17 8 26 18 23 26 66 42 82 32 11 -7 7 -12 -13
-21 -28 -13 -37 -47 -14 -53 6 -2 35 -11 63 -20 62 -19 117 -6 153 36 13 15
31 28 39 28 8 0 32 16 53 35 22 19 44 35 51 35 6 0 22 9 34 21 13 12 36 22 53
24 16 1 41 9 54 18 14 9 38 19 53 23 16 4 36 13 45 21 9 7 24 11 33 7 19 -7
59 23 49 38 -3 6 -26 8 -54 4 -27 -4 -49 -3 -49 1 1 4 19 20 40 35 70 49 43
76 -81 83 -66 4 -66 4 -105 -36 -43 -44 -199 -154 -241 -170 -16 -6 -36 -17
-45 -26 -19 -17 -249 -63 -279 -56 -38 10 -23 50 39 98 31 25 62 45 68 45 6 0
21 11 34 25 13 14 28 25 33 25 5 0 24 16 41 35 17 19 52 43 76 54 25 11 51 29
58 41 7 11 24 25 37 30 53 20 10 77 -66 87 -23 4 -49 15 -62 29 -12 13 -32 24
-44 24 -13 0 -23 4 -23 9 0 11 -55 31 -85 31 -14 0 -26 10 -34 26 -10 24 -8
29 24 58 20 18 62 48 95 67 33 19 60 39 60 46 0 6 32 33 70 58 51 34 78 46 96
42 16 -3 33 4 52 19 39 34 60 39 84 17 32 -28 48 -68 48 -116 0 -39 -5 -49
-37 -78 -33 -28 -38 -39 -38 -75 0 -23 3 -46 7 -50 4 -4 37 -8 74 -8 73 -1 94
13 94 66 0 21 8 33 29 46 33 18 61 69 61 108 0 17 -13 37 -40 61 -22 20 -40
41 -39 47 4 30 -3 36 -39 36 -21 0 -47 7 -58 15 -20 15 -54 20 -54 7 0 -4 -20
-6 -45 -4 -25 2 -45 8 -45 13 0 15 -40 10 -46 -5 -4 -9 -15 -13 -31 -10 -14 3
-33 -2 -42 -9 -26 -23 -143 -59 -154 -48 -19 19 11 82 45 93 9 3 4 16 -15 41
-15 21 -31 55 -35 78 -4 22 -10 37 -14 33z m482 -253 c13 -26 13 -58 -2 -67
-15 -10 -48 32 -48 62 0 30 34 33 50 5z"/>
<path d="M4983 5162 c-28 -33 -29 -42 -3 -42 20 0 55 52 43 64 -11 10 -17 7
-40 -22z"/>
<path d="M6100 5165 c-11 -13 -7 -15 26 -15 50 0 75 15 42 23 -37 10 -55 8
-68 -8z"/>
<path d="M3183 5160 c-28 -11 -29 -16 -4 -30 24 -12 66 1 74 24 5 12 0 16 -21
15 -15 0 -37 -4 -49 -9z"/>
<path d="M2045 5120 c-33 -22 -77 -52 -98 -66 -21 -13 -66 -48 -100 -75 -34
-28 -72 -56 -84 -61 -25 -12 -63 -101 -63 -146 0 -27 43 -72 70 -72 5 0 10 -5
10 -11 0 -8 30 -10 103 -6 110 6 133 9 143 20 10 9 24 9 24 -1 0 -4 -13 -13
-29 -20 -49 -22 -51 -55 -4 -73 30 -11 23 -25 -20 -39 -26 -8 -18 -9 43 -6 41
2 93 11 115 19 22 9 57 18 77 22 21 3 44 13 53 22 15 14 15 17 0 33 -15 16
-14 19 11 39 15 11 34 21 42 21 9 0 26 9 38 21 12 11 38 26 59 33 24 9 41 24
53 46 10 21 29 38 46 43 31 10 96 69 96 87 0 5 -17 18 -37 27 -36 17 -37 19
-34 66 3 55 -12 62 -33 14 -8 -21 -33 -46 -67 -68 -30 -19 -92 -62 -138 -97
-113 -84 -196 -134 -240 -143 -20 -4 -80 -17 -134 -29 -107 -23 -127 -19 -127
25 0 45 247 238 341 266 44 14 89 59 89 90 0 14 -13 26 -42 39 -64 29 -95 25
-163 -20z"/>
<path d="M5961 5151 c-8 -5 -15 -25 -15 -44 -1 -19 -7 -42 -15 -50 -7 -9 -10
-25 -6 -36 6 -20 6 -20 43 -1 32 17 38 18 52 5 11 -10 39 -15 88 -15 60 0 73
3 82 19 13 25 -2 36 -29 21 -11 -5 -28 -10 -39 -10 -23 0 -105 42 -103 53 1 4
-3 13 -9 20 -6 6 -16 20 -23 29 -8 12 -17 15 -26 9z"/>
<path d="M5318 5108 c-15 -17 -28 -39 -28 -49 0 -20 15 -26 25 -9 11 17 61 11
89 -11 31 -25 32 -36 5 -58 -20 -16 -25 -41 -17 -86 2 -14 -3 -21 -19 -23 -28
-4 -31 -32 -4 -32 11 0 32 5 47 10 19 8 30 8 38 0 25 -25 43 -11 50 38 5 43
12 53 49 79 23 17 52 33 65 37 32 10 27 24 -10 28 -27 2 -33 7 -31 25 2 15 -5
27 -20 34 -12 7 -23 12 -24 11 -3 -2 -32 7 -58 18 -11 5 -45 11 -75 13 -50 4
-56 2 -82 -25z"/>
<path d="M5787 5123 c-24 -23 9 -31 39 -8 18 14 18 14 -7 15 -14 0 -29 -3 -32
-7z"/>
<path d="M4786 5095 c-7 -19 3 -19 28 0 19 15 19 15 -1 15 -11 0 -23 -7 -27
-15z"/>
<path d="M4746 5054 c-10 -26 -7 -34 14 -34 11 0 20 4 20 9 0 17 -12 41 -20
41 -4 0 -11 -7 -14 -16z"/>
<path d="M5666 5033 c4 -10 8 -34 8 -55 1 -44 8 -53 34 -39 17 9 19 18 15 53
-7 51 -2 44 -37 52 -25 6 -28 5 -20 -11z"/>
<path d="M5060 4984 c-6 -14 -26 -45 -46 -67 -40 -48 -32 -56 30 -31 37 15 45
24 48 49 7 69 -13 100 -32 49z"/>
<path d="M5143 5002 c-12 -8 -14 -52 -2 -52 4 0 12 7 19 15 7 8 21 15 31 15
11 0 19 7 19 15 0 16 -45 21 -67 7z"/>
<path d="M5750 4941 c0 -6 9 -15 20 -21 11 -6 20 -21 20 -33 0 -12 4 -29 10
-37 8 -12 10 -12 15 2 4 9 5 33 3 54 -3 36 -6 39 -35 42 -18 2 -33 -1 -33 -7z"/>
<path d="M5608 4878 c-16 -12 -15 -16 1 -47 l18 -34 7 38 c8 43 -3 61 -26 43z"/>
<path d="M5010 4829 c-14 -6 -28 -17 -33 -25 -4 -8 -20 -14 -34 -14 -22 0 -24
2 -13 15 21 25 5 28 -51 10 -39 -13 -70 -35 -122 -86 -53 -52 -78 -69 -107
-74 -22 -4 -43 -12 -48 -18 -12 -15 -8 -62 6 -79 8 -10 6 -20 -8 -38 -28 -36
-25 -40 23 -40 38 0 44 3 62 36 18 34 51 61 62 51 2 -3 -5 -23 -16 -46 -12
-22 -21 -45 -21 -51 0 -22 32 -8 67 31 31 34 42 40 64 35 32 -6 89 19 89 39 0
7 12 16 27 19 14 4 34 17 44 29 20 27 113 79 123 70 3 -3 6 -1 6 6 0 8 11 11
28 9 22 -2 28 -9 32 -38 l5 -35 22 38 c16 26 32 39 53 43 43 9 37 19 -12 19
-24 0 -43 6 -46 13 -4 14 -54 16 -67 3 -6 -5 -44 -11 -85 -13 -63 -2 -75 0
-78 14 -5 24 57 41 118 33 l50 -7 -11 31 c-10 29 -14 31 -57 30 -26 0 -58 -5
-72 -10z m-146 -128 c10 -15 -32 -43 -73 -48 -44 -6 -52 4 -23 29 26 24 86 36
96 19z m5 -90 c27 -17 -6 -41 -55 -41 -49 0 -55 11 -22 34 25 18 56 20 77 7z"/>
<path d="M4357 4690 c-9 -11 -28 -20 -42 -20 -14 0 -25 -4 -25 -10 0 -5 -8
-10 -18 -10 -9 0 -23 -9 -30 -20 -16 -26 -8 -25 29 1 16 11 47 22 69 23 46 4
45 3 54 34 9 28 -13 30 -37 2z"/>
<path d="M5957 4672 c-15 -3 -18 -12 -15 -60 l3 -57 -60 -10 c-49 -9 -62 -8
-71 3 -9 12 -15 12 -40 0 -16 -9 -47 -21 -69 -28 -22 -7 -48 -19 -57 -27 -12
-11 -28 -13 -50 -9 -27 5 -36 2 -47 -16 -12 -20 -11 -24 8 -36 11 -8 21 -23
21 -32 0 -10 3 -26 7 -35 5 -14 9 -10 17 16 9 28 23 40 76 66 36 18 79 32 97
32 18 1 36 7 40 15 5 9 33 17 73 21 l65 7 -22 -23 c-13 -13 -35 -24 -50 -25
-16 -1 -29 -3 -31 -3 -2 -1 10 -12 26 -26 48 -40 70 -85 58 -118 -7 -19 -7
-33 0 -44 19 -30 34 -26 34 9 0 24 3 29 10 18 18 -28 22 0 10 64 -14 76 -7
126 20 126 28 0 42 -25 35 -63 -4 -21 -3 -37 4 -41 7 -5 11 8 11 38 0 60 15
96 39 96 11 0 25 9 31 21 7 11 25 25 41 31 31 11 42 48 14 48 -8 0 -24 9 -35
20 -23 23 -40 26 -40 7 0 -23 -33 -46 -77 -53 -45 -7 -43 -9 -55 56 -2 9 -11
14 -21 12z"/>
<path d="M6375 4599 c-16 -5 -47 -10 -67 -11 -29 -1 -38 -6 -38 -19 0 -10 -11
-31 -25 -47 -28 -34 -31 -59 -11 -87 7 -10 11 -26 9 -35 -3 -12 3 -19 21 -22
29 -6 30 -2 16 59 -9 36 -7 47 13 77 12 19 30 38 39 41 26 9 58 -13 70 -46 16
-46 34 -35 47 28 6 31 11 60 11 65 0 10 -46 9 -85 -3z"/>
<path d="M5008 4583 c-10 -3 -18 -13 -18 -24 0 -24 12 -24 34 0 19 20 12 30
-16 24z"/>
<path d="M2303 4539 c-48 -34 -57 -48 -15 -25 15 9 40 20 55 26 16 5 25 14 22
20 -9 15 -15 12 -62 -21z"/>
<path d="M1915 4505 c-87 -13 -128 -40 -150 -99 -25 -66 -17 -133 23 -183 27
-35 31 -45 23 -66 -7 -18 -6 -27 2 -29 19 -7 97 3 97 12 0 5 -9 25 -21 44 -19
33 -20 37 -4 112 9 42 20 85 25 94 11 21 79 50 118 50 40 0 73 11 69 23 -2 6
-21 16 -43 24 -21 7 -46 16 -54 21 -8 4 -47 3 -85 -3z"/>
<path d="M4880 4455 c-16 -31 -15 -32 12 -48 38 -22 47 -3 21 46 l-18 35 -15
-33z"/>
<path d="M6093 4415 c0 -22 2 -30 4 -17 2 12 2 30 0 40 -3 9 -5 -1 -4 -23z"/>
<path d="M6490 4330 c-29 -27 -58 -50 -65 -50 -7 0 -15 -8 -19 -17 -3 -10 -10
-28 -16 -40 -7 -17 -6 -23 3 -23 16 0 177 154 177 169 0 23 -30 9 -80 -39z"/>
<path d="M6300 4346 c0 -8 4 -17 9 -20 10 -7 23 19 14 28 -11 11 -23 6 -23 -8z"/>
<path d="M5166 4304 c-22 -22 -20 -34 7 -34 12 0 32 -3 45 -6 18 -5 22 -2 22
19 0 17 -7 26 -22 31 -32 8 -35 8 -52 -10z"/>
<path d="M5547 4314 c-13 -13 -7 -59 10 -84 9 -14 34 -44 54 -68 21 -24 40
-57 43 -73 3 -16 9 -44 13 -61 l6 -33 8 35 c4 19 5 45 2 58 -3 12 0 29 7 37
10 13 10 22 -3 48 -8 17 -20 43 -25 57 l-11 25 0 -27 c-1 -16 -5 -28 -10 -28
-13 0 -51 49 -51 65 0 19 -34 58 -43 49z"/>
<path d="M5004 4299 c-23 -7 -33 -17 -42 -45 -13 -43 -10 -52 29 -83 41 -32
92 -23 119 22 29 47 26 79 -11 100 -34 19 -48 20 -95 6z"/>
<path d="M2150 4291 c-31 -9 -17 -18 52 -37 48 -12 52 -12 69 9 10 12 18 25
19 30 0 9 -106 8 -140 -2z"/>
<path d="M4196 4255 c4 -8 17 -15 31 -15 31 0 53 -22 53 -52 0 -34 -9 -42 -75
-77 -144 -75 -249 -152 -267 -195 -20 -49 -16 -107 10 -143 18 -26 21 -37 12
-52 -5 -11 -10 -31 -10 -45 0 -34 -10 -56 -25 -56 -7 0 -18 -13 -25 -30 -7
-16 -21 -32 -31 -35 -20 -7 -25 -30 -9 -40 6 -3 10 -25 10 -48 0 -52 5 -60 52
-81 21 -10 40 -26 43 -37 4 -10 12 -19 19 -19 8 0 19 -7 26 -15 17 -21 23 -19
42 13 15 25 15 29 -3 51 -10 13 -19 36 -19 52 0 35 -15 45 -46 28 -13 -7 -27
-10 -30 -6 -10 9 14 70 39 97 17 19 22 37 22 75 0 39 4 50 18 53 12 2 17 -3
17 -17 0 -30 21 -26 55 9 18 19 24 30 15 30 -8 0 1 8 20 19 19 10 38 17 42 14
4 -2 30 6 58 18 52 22 72 20 51 -5 -29 -35 25 -146 70 -146 10 0 23 15 33 39
23 58 70 107 131 136 30 14 57 29 60 35 3 5 58 47 122 92 63 45 118 89 120 96
3 7 -5 24 -17 38 -47 49 -135 23 -270 -78 -34 -27 -71 -48 -81 -48 -10 0 -19
-6 -19 -14 0 -21 -47 -47 -72 -41 -13 3 -33 0 -44 -7 -55 -33 -104 -58 -104
-53 0 3 -10 0 -22 -7 -13 -7 -28 -11 -34 -10 -6 1 -29 -4 -52 -12 -37 -13 -42
-13 -56 3 -9 10 -16 24 -16 32 0 16 118 129 135 129 7 0 43 20 81 45 38 25 78
48 89 51 11 3 31 27 44 55 13 27 28 49 32 49 4 0 10 9 14 19 3 11 15 23 26 26
33 11 21 26 -16 19 -30 -5 -36 -3 -46 19 -17 37 -66 57 -143 57 -54 0 -64 -3
-60 -15z"/>
<path d="M6299 4208 c-1 -59 -21 -151 -38 -171 -10 -12 -10 -21 -3 -30 6 -7
12 -56 14 -110 2 -53 6 -97 9 -97 3 0 14 -35 23 -78 9 -42 25 -104 35 -137
l19 -60 1 99 c1 86 -3 108 -26 165 -14 36 -28 91 -31 121 -3 48 0 62 22 94 35
52 41 74 22 94 -9 11 -16 42 -18 81 -2 40 -8 66 -15 69 -9 2 -13 -10 -14 -40z"/>
<path d="M1640 4141 c0 -15 140 -155 147 -147 3 3 -10 23 -29 44 -20 22 -37
43 -39 48 -7 17 -79 67 -79 55z"/>
<path d="M5926 4108 c-20 -28 -20 -44 -1 -51 17 -7 20 -3 30 41 8 38 -6 43
-29 10z"/>
<path d="M6191 4104 c0 -11 3 -14 6 -6 3 7 2 16 -1 19 -3 4 -6 -2 -5 -13z"/>
<path d="M6665 3995 c2 -71 9 -149 15 -173 16 -64 27 -389 19 -542 -40 -749
-354 -1491 -858 -2025 -223 -237 -536 -493 -711 -580 -30 -15 -57 -31 -60 -36
-3 -5 -17 -10 -30 -11 -20 -3 -25 3 -32 37 -8 37 5 272 19 320 12 44 107 126
205 176 89 46 158 103 158 130 0 13 7 17 -140 -70 -154 -91 -260 -169 -260
-192 0 -10 -4 -21 -10 -24 -5 -3 -10 -15 -10 -27 0 -11 -8 -22 -20 -25 -11 -3
-21 -13 -21 -22 -4 -49 4 -147 12 -156 15 -15 11 -91 -6 -105 -9 -8 -15 -29
-15 -56 0 -40 -3 -45 -44 -74 -25 -16 -49 -30 -55 -30 -6 0 -25 -9 -42 -19
-24 -15 -37 -17 -51 -10 -26 14 -23 26 18 63 32 30 35 36 24 56 l-12 22 -23
-22 c-19 -18 -29 -20 -52 -13 -25 9 -28 15 -31 61 -3 49 -1 53 29 71 40 24 49
20 49 -25 0 -38 6 -41 39 -18 15 11 21 23 18 35 -4 14 9 31 44 62 40 34 49 48
49 75 0 37 -1 37 -43 18 -18 -8 -58 -22 -90 -31 -66 -18 -133 -72 -169 -136
-12 -22 -24 -39 -27 -39 -28 1 -44 63 -30 112 7 26 5 28 -32 39 -49 15 -51 41
-10 114 32 56 28 75 -15 75 -43 0 -54 -9 -42 -35 12 -26 3 -79 -12 -70 -5 3
-14 -4 -20 -15 -6 -11 -17 -20 -25 -20 -8 0 -15 -7 -15 -15 0 -9 9 -15 23 -15
12 0 28 -9 35 -21 8 -12 19 -18 28 -15 14 5 19 -14 15 -56 -1 -9 7 -22 17 -30
10 -7 22 -24 25 -38 8 -32 66 -120 79 -120 6 0 7 8 3 18 -12 30 -10 36 8 40
29 6 67 -26 88 -75 33 -77 2 -101 -48 -37 -31 41 -42 31 -18 -16 20 -39 13
-60 -19 -60 -20 0 -27 7 -34 32 -12 48 -32 48 -32 0 0 -31 -6 -45 -25 -60 -26
-21 -34 -52 -12 -52 6 0 23 9 37 20 17 13 28 15 37 9 8 -7 21 -5 42 5 16 9 37
16 46 16 9 0 38 11 65 25 27 14 55 25 61 25 7 0 49 17 93 38 45 21 101 47 125
57 24 11 63 33 85 49 23 17 70 46 106 65 110 58 304 183 330 212 14 15 41 32
60 37 23 6 35 14 34 25 -1 11 6 17 17 17 17 0 88 54 179 135 32 29 135 146
170 193 15 20 53 64 84 97 31 33 59 71 64 85 15 53 56 110 80 110 15 0 22 6
22 18 0 11 9 27 20 37 11 10 20 24 20 30 0 7 7 19 17 26 9 8 26 37 38 64 13
28 32 59 44 69 11 11 21 26 21 34 0 9 6 23 13 31 8 9 33 68 57 131 24 63 68
169 98 235 91 200 174 566 203 890 19 211 3 600 -31 755 -5 25 -17 83 -26 130
-25 133 -33 128 -29 -15z m-1675 -3283 c0 -72 -13 -118 -29 -107 -9 5 -5 106
5 174 9 57 24 15 24 -67z"/>
<path d="M6132 4060 c0 -14 2 -19 5 -12 2 6 2 18 0 25 -3 6 -5 1 -5 -13z"/>
<path d="M6210 4056 c0 -9 7 -16 16 -16 9 0 14 5 12 12 -6 18 -28 21 -28 4z"/>
<path d="M5210 4015 c-25 -18 -58 -45 -74 -59 -16 -15 -39 -29 -51 -32 -28 -7
-75 12 -75 31 0 15 -11 19 -40 15 -21 -3 -22 -4 -14 -34 3 -14 12 -26 19 -26
12 0 51 -38 44 -43 -23 -18 -102 -67 -108 -67 -4 0 -18 -11 -31 -25 -13 -14
-27 -25 -32 -25 -4 0 -27 -13 -50 -30 -22 -16 -49 -30 -59 -30 -10 0 -20 -4
-24 -10 -3 -5 -12 -7 -19 -4 -8 3 -17 1 -21 -5 -3 -6 -20 -11 -37 -11 -21 0
-29 -4 -25 -14 4 -9 -3 -13 -20 -13 -14 0 -29 -6 -33 -13 -6 -9 -13 -9 -28 -1
-14 7 -29 8 -45 2 -14 -5 -34 -7 -45 -5 -24 7 -36 -20 -16 -36 11 -10 25 -10
61 0 27 7 79 14 116 16 l68 5 -7 -51 c-6 -48 -5 -51 30 -85 20 -19 55 -40 76
-46 22 -7 40 -16 40 -21 0 -5 10 -6 23 -4 99 21 127 30 127 41 0 15 -38 27
-46 14 -10 -17 -63 -10 -76 10 -9 15 -16 17 -25 10 -7 -6 -17 -8 -23 -4 -22
13 -8 44 38 84 26 22 56 49 67 59 11 9 40 31 65 47 25 17 50 34 55 38 60 47
171 127 177 127 3 0 36 -13 73 -30 37 -16 83 -30 103 -30 l37 0 -40 40 c-32
31 -47 39 -78 40 -31 0 -38 3 -35 17 2 10 17 25 34 33 45 22 113 73 119 90 8
20 -38 52 -82 56 -19 2 -42 5 -51 8 -10 3 -37 -10 -62 -29z"/>
<path d="M6069 4030 c-1 -14 -3 -34 -4 -45 -1 -11 -3 -26 -4 -32 0 -7 -8 -13
-17 -13 -9 0 -14 -3 -12 -7 53 -107 68 -140 68 -150 0 -7 4 -13 10 -13 6 0 7
13 2 33 -8 39 -7 97 3 154 7 36 5 41 -11 40 -13 -2 -20 7 -25 28 -6 29 -7 29
-10 5z"/>
<path d="M5638 3963 c7 -3 16 -2 19 1 4 3 -2 6 -13 5 -11 0 -14 -3 -6 -6z"/>
<path d="M3415 3950 c-3 -5 -1 -10 4 -10 6 0 11 5 11 10 0 6 -2 10 -4 10 -3 0
-8 -4 -11 -10z"/>
<path d="M5673 3945 c-9 -24 16 -159 38 -204 28 -59 26 -65 -23 -57 -24 4 -50
7 -58 6 -8 0 -49 -2 -90 -3 -96 -4 -157 -16 -171 -33 -6 -8 -21 -14 -33 -14
-12 0 -30 -6 -41 -14 -11 -7 -24 -15 -30 -16 -5 -2 -18 -5 -27 -8 -10 -2 -18
-8 -18 -12 0 -4 -9 -18 -21 -31 -23 -27 -45 -20 -66 22 -13 24 -32 27 -45 6
-4 -6 -4 -31 -1 -54 6 -42 5 -43 -26 -49 -39 -8 -48 -21 -28 -42 13 -12 19
-13 31 -3 21 17 46 7 46 -19 0 -34 33 -144 48 -162 8 -10 47 -33 86 -52 80
-38 207 -57 245 -36 35 18 14 30 -53 30 -54 0 -69 4 -104 30 -23 16 -46 38
-51 49 -16 29 -13 95 5 142 16 38 19 41 48 35 17 -4 88 -13 158 -21 142 -16
204 -10 287 26 47 20 51 24 52 58 2 55 -1 64 -27 92 -13 14 -24 33 -24 42 0
10 -7 28 -15 41 -9 13 -18 48 -21 77 -3 30 -10 65 -15 79 -6 16 -5 38 1 59 5
19 9 35 7 36 -1 1 -14 5 -30 9 -20 5 -29 2 -34 -9z m16 -291 c26 -5 31 -11 31
-34 0 -34 -28 -70 -74 -95 -34 -19 -36 -19 -55 0 -21 18 -21 18 -21 -3 0 -12
-10 -27 -22 -33 -27 -15 -208 -25 -208 -13 0 12 30 56 50 72 21 18 107 62 120
62 6 0 15 -11 20 -25 14 -37 30 -30 30 13 0 21 5 43 12 50 13 13 67 16 117 6z"/>
<path d="M2213 3943 c-20 -7 -15 -41 15 -94 22 -40 32 -49 55 -49 33 0 34 10
3 39 -13 12 -26 34 -29 49 -7 35 -29 61 -44 55z"/>
<path d="M1527 3874 c-3 -3 34 -56 82 -117 70 -90 94 -130 121 -202 30 -79 34
-100 32 -170 -2 -66 0 -77 11 -65 8 8 19 34 26 57 7 26 19 44 31 48 28 9 25
19 -17 74 -39 49 -77 110 -121 191 -47 87 -148 200 -165 184z"/>
<path d="M1920 3832 c0 -10 18 -35 40 -57 44 -43 70 -90 70 -128 0 -35 21 -50
54 -37 32 12 35 32 4 28 -19 -2 -22 1 -20 22 2 14 13 33 25 43 20 17 20 20 4
28 -9 6 -17 15 -17 22 0 7 -25 23 -54 35 -30 13 -62 32 -72 43 -21 24 -34 24
-34 1z"/>
<path d="M3360 3815 c0 -8 -9 -24 -20 -35 -25 -25 -27 -60 -2 -60 11 0 23 15
35 43 21 52 21 67 2 67 -8 0 -15 -7 -15 -15z"/>
<path d="M2440 3796 c0 -18 27 -46 45 -46 13 0 27 45 17 55 -12 12 -62 4 -62
-9z"/>
<path d="M2600 3761 c0 -23 -31 -40 -62 -34 l-31 6 6 -51 c5 -46 4 -53 -16
-63 -21 -12 -21 -12 -2 -19 14 -5 25 0 38 17 11 13 26 22 33 19 9 -4 28 13 49
43 20 27 43 52 51 55 13 5 14 9 4 21 -14 16 -70 21 -70 6z"/>
<path d="M3796 3741 c-3 -4 3 -16 13 -25 16 -15 19 -15 31 -1 7 8 18 15 26 15
7 0 16 5 19 10 4 6 -11 10 -39 10 -25 0 -47 -4 -50 -9z"/>
<path d="M3457 3672 c-14 -15 -29 -39 -32 -55 -4 -15 -20 -36 -36 -48 -24 -17
-27 -24 -19 -39 10 -18 36 -20 60 -5 5 3 15 24 22 46 6 23 22 48 35 56 25 17
31 58 9 66 -7 3 -25 -7 -39 -21z"/>
<path d="M1843 3637 c13 -24 33 -53 45 -65 12 -12 22 -28 22 -35 0 -8 11 -19
25 -25 59 -27 59 -9 2 64 -24 30 -60 66 -80 80 l-37 25 23 -44z"/>
<path d="M2240 3613 c0 -6 9 -18 20 -28 17 -15 24 -16 45 -7 31 14 32 32 3 32
-13 0 -33 3 -45 6 -13 4 -23 2 -23 -3z"/>
<path d="M2950 3570 c-6 -22 -19 -44 -30 -50 -12 -7 -21 -26 -26 -58 -3 -26
-11 -53 -17 -61 -24 -30 -37 -87 -31 -141 5 -47 3 -59 -16 -82 -13 -17 -31
-28 -45 -28 -14 0 -29 -8 -35 -19 -17 -33 -12 -103 10 -131 l20 -25 26 29 c14
15 28 41 31 57 3 16 9 29 14 29 5 0 9 7 9 15 0 8 4 15 9 15 6 0 22 27 37 60
48 107 74 96 35 -15 -13 -38 -25 -54 -49 -65 -21 -10 -32 -22 -32 -37 0 -21 5
-23 45 -23 26 0 45 5 45 11 0 6 20 31 45 56 39 38 45 50 45 84 0 60 38 120 90
141 l25 11 -25 7 c-23 6 -25 10 -22 59 2 35 -3 61 -14 80 -15 25 -19 27 -45
18 -36 -14 -53 1 -68 58 -6 25 -13 45 -16 45 -2 0 -9 -18 -15 -40z m58 -189
c-7 -11 -18 -21 -24 -21 -6 0 -14 -13 -17 -30 -7 -33 -24 -40 -34 -13 -4 11 1
22 15 31 12 8 22 21 22 29 0 8 5 24 11 35 10 18 13 19 26 5 12 -12 13 -18 1
-36z m-100 -64 c2 -10 -3 -17 -12 -17 -9 0 -16 2 -16 4 0 2 -3 12 -6 21 -5 13
-2 16 12 13 10 -2 20 -11 22 -21z"/>
<path d="M3070 3575 c0 -10 7 -15 18 -13 21 4 19 22 -2 26 -10 2 -16 -3 -16
-13z"/>
<path d="M3634 3548 c-3 -12 -15 -29 -25 -37 -15 -13 -17 -25 -12 -59 6 -48
26 -52 31 -6 2 16 13 39 24 51 15 16 19 29 14 47 -8 32 -22 33 -32 4z"/>
<path d="M2525 3491 c4 -27 3 -47 -5 -56 -26 -32 -50 -91 -50 -127 0 -45 13
-56 34 -26 14 19 19 21 35 11 18 -11 19 -7 23 55 4 55 18 104 45 153 2 4 -9 9
-24 12 -15 3 -36 9 -47 13 -17 6 -18 3 -11 -35z"/>
<path d="M6350 3486 c0 -28 25 -55 33 -34 5 16 -13 58 -25 58 -4 0 -8 -11 -8
-24z"/>
<path d="M4431 3473 c0 -18 -9 -40 -20 -50 -18 -18 -32 -60 -32 -97 0 -27 10
-32 25 -11 15 21 46 14 46 -10 0 -9 -23 -43 -51 -77 -29 -35 -48 -66 -45 -75
3 -8 6 -19 6 -25 0 -6 6 -6 15 2 8 7 15 9 15 6 0 -4 9 -2 20 4 35 19 59 3 73
-47 8 -31 19 -49 35 -56 37 -17 46 4 19 44 -13 19 -26 42 -30 52 -3 9 -13 17
-20 17 -8 0 -22 9 -31 19 -21 23 -14 56 15 71 24 13 24 27 -1 109 -10 36 -23
86 -28 111 -9 40 -10 41 -11 13z"/>
<path d="M3330 3438 c-19 -11 -44 -28 -55 -38 -11 -10 -30 -21 -43 -25 -36
-11 -20 -30 21 -27 25 3 37 -1 38 -10 1 -7 3 -24 4 -37 3 -32 -24 -101 -52
-132 -16 -18 -23 -37 -23 -67 0 -53 13 -54 29 -2 6 21 23 52 36 68 18 21 25
42 25 70 0 30 7 47 28 69 40 44 57 96 40 126 l-13 24 -35 -19z"/>
<path d="M590 3433 c0 -4 5 -26 11 -48 5 -22 10 -76 9 -120 0 -66 4 -89 26
-135 15 -30 28 -62 29 -70 18 -111 18 -131 -6 -183 -13 -29 -34 -60 -46 -70
-13 -10 -23 -26 -23 -36 0 -20 -83 -104 -107 -107 -9 -2 -24 -12 -33 -22 -8
-11 -25 -25 -37 -31 -24 -12 -31 -45 -13 -56 6 -3 10 -17 10 -30 0 -13 5 -27
10 -30 10 -6 165 147 175 173 8 20 40 10 41 -13 2 -42 5 -45 35 -45 l31 0 -8
53 c-15 97 -2 157 32 157 20 0 17 14 -6 35 -17 15 -20 31 -20 94 0 51 -11 123
-34 221 -19 80 -40 171 -47 203 -7 32 -16 60 -21 63 -4 3 -8 2 -8 -3z"/>
<path d="M5005 3360 c10 -11 23 -20 28 -20 6 0 2 9 -8 20 -10 11 -23 20 -28
20 -6 0 -2 -9 8 -20z"/>
<path d="M5823 3298 c-21 -10 -32 -38 -15 -38 10 0 72 39 72 45 0 8 -34 4 -57
-7z"/>
<path d="M1271 3214 c-131 -98 -335 -244 -344 -244 -3 0 -10 14 -16 30 -13 38
-31 39 -31 0 0 -16 -9 -52 -20 -79 -10 -27 -21 -73 -24 -103 -4 -37 -3 -44 2
-23 13 46 31 75 47 75 9 0 24 5 34 12 15 9 25 7 53 -10 46 -28 51 -28 86 8 17
17 38 30 47 30 8 0 29 15 46 34 19 23 48 41 82 51 29 9 66 23 84 31 17 8 40
14 50 14 22 0 59 65 43 75 -19 11 -10 25 29 44 44 23 101 69 101 82 0 13 -74
48 -117 54 -36 6 -45 1 -152 -81z"/>
<path d="M1781 3275 c0 -11 -4 -31 -7 -45 -5 -19 -4 -22 5 -14 7 6 11 26 8 45
-2 19 -5 25 -6 14z"/>
<path d="M4367 3270 c-3 -11 -1 -20 4 -20 5 0 9 2 9 4 0 2 3 11 6 20 3 9 2 16
-4 16 -5 0 -12 -9 -15 -20z"/>
<path d="M2222 3249 c2 -7 10 -15 17 -17 8 -3 12 1 9 9 -2 7 -10 15 -17 17 -8
3 -12 -1 -9 -9z"/>
<path d="M3577 3244 c-3 -4 1 -21 10 -38 9 -17 18 -26 20 -19 5 15 -21 66 -30
57z"/>
<path d="M5645 3225 l-30 -25 45 6 c53 8 72 20 50 34 -23 14 -32 12 -65 -15z"/>
<path d="M1635 3184 c-65 -24 -109 -116 -91 -188 10 -42 64 -96 95 -96 45 0
53 -17 30 -62 -22 -44 -47 -48 -64 -11 -7 17 -17 22 -43 21 -32 -1 -34 -3 -28
-31 3 -16 6 -51 6 -78 0 -29 4 -49 11 -49 6 0 9 9 6 20 -4 15 2 25 19 37 14 8
27 13 30 10 4 -3 7 -31 9 -61 1 -31 7 -61 13 -68 5 -7 12 -24 14 -37 1 -13 12
-29 23 -34 11 -6 27 -14 35 -19 38 -21 69 -32 115 -39 28 -4 79 -13 115 -19
76 -13 119 -8 184 20 25 12 55 18 66 15 18 -6 20 -29 5 -100 -3 -11 5 -40 17
-65 11 -25 24 -52 28 -60 4 -8 22 -16 41 -18 19 -2 38 -8 43 -13 15 -14 96
-10 141 7 77 29 73 31 73 -22 -1 -40 3 -51 27 -70 35 -28 73 -37 149 -38 38
-1 61 -5 63 -13 7 -19 24 -16 48 7 22 21 133 65 142 56 2 -2 -2 -17 -11 -34
-8 -16 -16 -48 -18 -72 -2 -36 2 -46 25 -64 15 -12 27 -26 27 -32 0 -6 48 -11
125 -12 125 -2 126 -2 135 23 7 19 17 25 41 25 28 0 31 -3 25 -22 -4 -13 -10
-38 -13 -57 -4 -21 -13 -35 -24 -38 -27 -7 -13 -23 21 -23 15 0 30 -4 32 -10
2 -5 28 -22 58 -37 l55 -28 7 -75 c7 -88 4 -107 -23 -115 -23 -8 -25 -33 -3
-63 13 -18 14 -29 5 -54 -18 -50 -13 -95 15 -151 24 -48 97 -127 118 -127 4 0
25 -13 46 -30 21 -16 46 -30 56 -30 11 0 35 -5 56 -10 29 -8 35 -14 31 -30 -3
-11 4 -31 17 -47 l22 -28 -43 -7 c-51 -9 -59 -16 -63 -54 -2 -16 -4 -30 -5
-32 0 -1 -18 7 -38 18 -44 23 -73 26 -73 6 0 -7 -3 -27 -6 -43 -5 -24 -2 -31
19 -40 41 -19 87 -112 96 -193 7 -66 10 -72 48 -105 23 -20 45 -45 48 -56 9
-29 26 -19 41 23 10 31 10 37 -2 42 -8 3 -14 19 -14 35 0 36 -20 82 -32 75
-11 -7 -68 50 -68 69 0 26 28 27 49 2 23 -30 41 -32 41 -5 0 21 10 26 26 11 5
-5 23 -11 39 -13 17 -2 33 -7 37 -13 4 -5 20 -3 40 7 l33 16 -27 12 c-22 10
-30 10 -43 0 -8 -7 -15 -8 -15 -3 0 5 -13 25 -30 43 -19 22 -30 44 -30 64 0
17 -4 38 -9 45 -7 10 -3 24 10 42 23 33 23 38 2 61 -15 16 -15 22 -4 40 13 21
8 30 -23 41 -5 2 -7 7 -4 13 3 5 55 8 115 7 81 -1 126 3 180 18 40 11 86 22
103 24 26 3 30 0 30 -20 0 -13 5 -27 10 -30 6 -3 10 -14 10 -23 0 -10 8 -33
18 -52 25 -47 44 -127 36 -152 -4 -15 -2 -19 7 -16 8 3 16 20 19 39 4 25 14
40 42 58 l37 24 -49 47 c-41 40 -50 54 -50 83 0 27 -5 37 -20 42 -11 3 -20 10
-20 15 0 13 40 49 63 56 10 3 39 20 65 37 37 25 56 31 106 32 34 1 73 5 88 9
45 13 47 -21 11 -174 -6 -22 -5 -24 10 -11 9 7 19 29 23 50 13 70 45 131 78
146 18 8 24 14 14 14 -9 1 -25 12 -36 26 l-19 24 -11 -23 c-12 -26 -39 -34
-97 -26 l-39 5 68 60 c37 33 75 64 84 69 9 5 44 33 77 61 33 28 80 66 105 82
25 17 65 52 90 78 l45 46 -25 20 c-14 10 -35 22 -47 25 -46 12 -57 6 -263
-143 -42 -31 -88 -55 -109 -58 -20 -4 -70 -24 -112 -46 -42 -21 -92 -39 -110
-40 -19 0 -43 -4 -54 -8 -22 -9 -55 7 -55 26 0 7 12 30 28 52 26 39 80 82 212
171 36 24 70 49 76 55 6 6 34 28 62 50 29 21 52 42 52 46 0 24 -104 54 -154
45 -19 -4 -40 -14 -47 -22 -7 -9 -23 -20 -34 -24 -12 -5 -76 -50 -143 -100
-67 -50 -125 -89 -130 -86 -6 3 -26 -1 -46 -9 -20 -8 -36 -13 -36 -11 0 3 -16
-2 -35 -10 -19 -8 -40 -13 -47 -12 -6 2 -13 -5 -16 -14 -4 -20 24 -37 69 -40
27 -3 34 1 39 21 6 27 35 50 47 38 4 -4 -1 -23 -11 -42 -24 -44 -17 -93 21
-139 15 -20 40 -38 55 -42 19 -4 36 -20 54 -50 15 -25 25 -47 23 -49 -2 -2
-27 -18 -54 -37 -83 -55 -212 -113 -297 -133 l-59 -13 -9 26 c-5 15 -16 39
-24 54 -12 22 -13 35 -4 58 6 17 8 34 4 37 -9 9 -47 -29 -42 -43 3 -8 -4 -7
-25 3 -22 11 -27 19 -21 31 5 10 0 41 -13 78 l-20 62 -35 -17 c-48 -23 -49
-46 -3 -87 21 -19 41 -34 45 -34 4 0 4 -25 1 -56 -5 -46 -3 -56 8 -52 8 2 15
14 17 26 6 36 38 26 72 -22 16 -25 30 -49 30 -55 0 -14 -47 -14 -55 -1 -3 5
-22 10 -42 10 -35 0 -113 36 -113 52 0 5 16 18 35 30 34 19 35 22 19 39 -9 10
-26 19 -38 21 -15 2 -22 11 -24 31 -2 15 -9 27 -18 27 -8 0 -14 10 -14 25 0
35 64 102 108 115 31 8 39 7 58 -11 l22 -21 11 20 c18 33 14 38 -45 57 l-56
18 5 36 c3 20 0 52 -7 71 -12 32 -14 33 -20 14 -9 -29 -75 -39 -93 -15 -20 26
-15 -5 8 -51 23 -46 17 -57 -31 -50 -38 5 -45 16 -41 67 3 57 9 73 31 80 11 3
19 9 18 13 -2 12 14 42 23 42 5 0 15 -15 22 -32 l14 -33 13 35 c12 34 74 79
88 65 4 -3 5 -35 4 -70 -3 -59 -1 -67 24 -90 15 -14 33 -25 40 -25 8 0 14 -4
14 -9 0 -10 32 -23 62 -26 10 -1 21 -5 24 -8 4 -3 15 -2 26 4 15 8 17 13 7 25
-6 8 -19 14 -28 14 -24 0 -70 23 -76 38 -2 7 2 15 10 18 9 4 15 19 15 35 0 24
8 35 48 59 26 16 56 38 67 50 12 11 28 20 37 20 9 0 18 4 20 9 2 5 42 38 89
73 76 56 125 84 181 102 10 3 16 11 13 18 -3 8 29 35 80 68 47 30 85 60 85 66
0 6 -29 22 -64 36 l-65 26 -58 -30 c-32 -17 -75 -46 -95 -66 l-37 -35 -38 17
c-50 22 -98 26 -98 6 0 -8 11 -17 25 -20 17 -4 26 -13 27 -30 3 -28 -19 -47
-150 -132 -43 -27 -81 -56 -83 -63 -3 -7 -18 -15 -35 -19 -16 -3 -29 -12 -29
-20 0 -22 -21 -24 -52 -7 -26 15 -31 15 -68 -6 -31 -18 -55 -23 -113 -23 l-74
0 5 30 c4 28 46 70 69 70 5 0 25 16 44 36 18 20 66 57 104 83 119 80 224 156
225 162 0 9 -114 59 -136 59 -12 0 -29 -9 -39 -20 -10 -11 -22 -20 -27 -20
-13 0 -88 -50 -131 -87 -34 -30 -168 -103 -189 -103 -4 0 -27 -9 -51 -19 -23
-11 -49 -19 -57 -20 -8 0 -44 -5 -79 -11 -84 -13 -115 -9 -119 17 -4 29 83
117 140 143 27 11 70 42 96 68 51 49 160 122 184 122 7 0 19 9 25 19 12 18
167 126 182 126 4 0 29 18 57 41 68 56 192 144 202 144 5 0 17 9 27 20 10 11
24 20 30 20 19 0 29 51 13 61 -7 5 -38 14 -68 20 -30 6 -59 13 -65 15 -6 3
-68 -38 -138 -91 l-127 -95 0 39 c0 51 -10 101 -21 101 -5 0 -15 -16 -24 -36
-8 -20 -24 -38 -35 -41 -17 -5 -20 -11 -14 -42 3 -20 8 -44 10 -53 4 -12 -7
-25 -33 -43 -21 -14 -60 -44 -88 -66 -27 -22 -62 -46 -76 -52 -26 -12 -56 -35
-134 -99 -24 -20 -60 -42 -80 -49 -19 -7 -35 -16 -35 -21 0 -11 -87 -60 -102
-57 -7 1 -20 -1 -28 -4 -112 -48 -280 -76 -280 -47 0 21 68 116 106 148 68 57
118 94 142 103 12 5 22 13 22 18 0 5 20 17 45 27 25 9 45 21 45 25 0 5 6 9 14
9 8 0 16 7 20 15 3 8 12 15 21 15 10 0 15 10 15 30 0 24 -5 30 -22 32 -65 4
-86 6 -120 13 -27 5 -38 4 -38 -4 0 -7 -4 -9 -10 -6 -5 3 -10 15 -10 25 0 29
-22 70 -37 70 -10 0 -12 -10 -7 -40 5 -33 2 -47 -24 -87 -30 -47 -114 -133
-129 -133 -5 0 -27 -18 -51 -40 -24 -22 -51 -40 -62 -40 -10 0 -20 -5 -22 -10
-2 -6 -20 -13 -41 -17 -34 -5 -37 -4 -37 19 0 14 9 36 19 50 11 13 23 36 26
51 9 34 51 76 93 94 24 10 32 19 28 29 -3 9 -6 18 -6 21 0 2 -14 -7 -31 -21
-19 -17 -43 -26 -64 -26 -30 0 -34 -4 -40 -32 -16 -73 -68 -128 -122 -128 -31
0 -29 10 13 91 37 69 52 84 149 147 102 66 154 84 223 80 62 -4 62 -4 43 16
-27 26 -224 48 -268 29 -108 -45 -157 -71 -220 -119 -40 -30 -79 -54 -87 -54
-9 0 -30 -6 -48 -14 -74 -31 -137 -46 -203 -48 -65 -3 -71 -1 -80 20 -7 17
-16 22 -32 19 -43 -8 -27 30 27 65 73 48 66 67 -11 27 -41 -20 -95 -23 -93 -4
1 6 4 22 8 38 5 20 3 27 -9 27 -21 0 -19 27 4 39 18 10 182 8 198 -2 5 -3 36
-7 68 -8 64 -2 221 33 241 54 44 46 30 142 -24 164 -17 7 -33 17 -37 23 -3 5
-17 10 -29 10 -13 0 -42 7 -64 14 -23 8 -44 11 -47 6 -9 -14 -67 10 -100 41
-44 41 -65 38 -65 -9 0 -44 -14 -62 -49 -62 -15 0 -35 -7 -45 -15 -11 -8 -26
-15 -33 -15 -8 0 -27 -10 -43 -22 -25 -18 -33 -20 -55 -10 -32 15 -45 48 -33
83 14 39 73 104 108 119 40 17 34 31 -21 50 -24 8 -45 18 -47 23 -5 11 -42 7
-87 -9z m548 -225 c23 0 27 -4 27 -29 0 -39 -26 -64 -107 -101 -50 -23 -86
-32 -138 -34 -104 -6 -127 -6 -132 -2 -8 8 8 33 31 47 13 8 53 35 88 60 74 53
120 70 168 64 19 -3 47 -5 63 -5z m277 -634 c-13 -16 -55 -20 -64 -6 -9 14 5
21 42 21 29 0 33 -2 22 -15z m1930 -846 c-7 -11 -26 -27 -45 -34 -18 -8 -35
-21 -38 -30 -4 -8 -14 -15 -22 -15 -13 0 -15 7 -10 33 9 44 39 67 86 67 37 0
39 -1 29 -21z"/>
<path d="M4940 3183 c0 -7 -11 -15 -25 -19 -21 -5 -24 -11 -19 -28 4 -11 12
-24 18 -28 18 -13 66 -9 66 5 -1 17 -39 85 -40 70z"/>
<path d="M1896 3158 c-9 -34 -7 -78 3 -78 11 0 21 35 21 73 0 33 -15 36 -24 5z"/>
<path d="M3721 3140 c-19 -10 -38 -26 -42 -36 -9 -22 -12 -124 -3 -124 19 0
44 24 44 42 0 11 16 38 35 59 40 44 42 54 17 68 -12 6 -27 4 -51 -9z"/>
<path d="M5210 3105 c0 -18 19 -40 26 -32 4 4 0 15 -9 24 -9 10 -17 13 -17 8z"/>
<path d="M4690 3031 c22 -32 40 -68 40 -80 0 -13 10 -26 25 -33 31 -14 43 -4
27 23 -7 11 -22 49 -33 85 l-20 64 -39 0 -40 0 40 -59z"/>
<path d="M3383 3004 l-22 -24 29 0 c17 0 30 4 30 9 0 5 3 16 6 25 9 24 -17 18
-43 -10z"/>
<path d="M1262 2977 c-10 -11 -9 -17 3 -27 8 -7 15 -25 15 -41 0 -15 5 -31 10
-34 15 -9 12 78 -3 99 -11 15 -15 16 -25 3z"/>
<path d="M3616 2918 c-9 -12 -16 -41 -15 -63 1 -38 1 -39 12 -15 9 18 19 24
35 22 22 -3 30 12 12 23 -5 3 -10 17 -10 31 0 30 -14 31 -34 2z"/>
<path d="M1196 2889 c-36 -42 -46 -69 -26 -69 27 0 84 90 67 106 -2 3 -21 -14
-41 -37z"/>
<path d="M1581 2884 c0 -11 3 -14 6 -6 3 7 2 16 -1 19 -3 4 -6 -2 -5 -13z"/>
<path d="M4655 2856 c-11 -9 -37 -16 -57 -16 -21 0 -38 -3 -38 -6 0 -16 22
-44 35 -44 29 0 127 50 123 62 -7 19 -40 21 -63 4z"/>
<path d="M3706 2828 c-19 -44 -19 -48 -6 -48 5 0 17 11 26 24 11 18 13 30 5
43 -9 16 -12 14 -25 -19z"/>
<path d="M1290 2787 c0 -49 4 -58 46 -107 26 -30 53 -65 61 -77 18 -27 29 -29
37 -7 8 20 -8 50 -49 94 -52 56 -84 108 -78 130 3 11 0 20 -6 20 -7 0 -11 -21
-11 -53z"/>
<path d="M1097 2770 c-9 -13 -14 -26 -12 -29 9 -8 38 26 33 40 -3 8 -10 5 -21
-11z"/>
<path d="M4108 2745 c-6 -14 -21 -28 -33 -31 -11 -3 -27 -20 -35 -37 -7 -18
-15 -35 -18 -39 -2 -5 3 -8 11 -8 38 0 28 -59 -20 -113 -40 -45 -42 -79 -7
-112 31 -29 42 -30 90 -10 41 17 67 66 54 101 -6 15 -5 26 4 33 10 9 11 23 3
63 -5 29 -9 81 -9 116 1 48 -2 62 -14 62 -8 0 -20 -11 -26 -25z m20 -183 c3
-28 0 -33 -15 -30 -12 2 -19 14 -21 36 -3 28 0 33 15 30 12 -2 19 -14 21 -36z"/>
<path d="M800 2740 c6 -11 17 -20 24 -20 9 0 12 7 9 20 -3 11 -14 20 -25 20
-16 0 -17 -3 -8 -20z"/>
<path d="M1023 2711 c3 -12 1 -21 -5 -21 -6 0 -7 -15 -3 -39 6 -34 3 -42 -14
-53 -25 -15 -27 -38 -6 -77 10 -20 12 -44 8 -82 -6 -47 -4 -52 11 -46 10 4 33
7 52 7 43 0 44 17 4 77 -26 38 -30 53 -30 114 0 56 4 73 21 90 26 26 20 43
-16 47 -24 3 -27 1 -22 -17z"/>
<path d="M2995 2700 c-18 -20 -17 -20 8 -20 20 0 27 5 27 20 0 11 -4 20 -8 20
-5 0 -17 -9 -27 -20z"/>
<path d="M4693 2618 c-26 -13 -31 -46 -8 -54 8 -4 22 -1 30 6 10 8 59 12 162
11 81 -1 145 0 142 3 -3 3 -60 6 -127 7 -104 1 -124 4 -138 20 -19 21 -29 22
-61 7z"/>
<path d="M1371 2505 c-30 -65 -48 -78 -71 -50 -18 22 -25 19 -38 -19 -10 -28
-20 -36 -55 -45 -59 -15 -70 -25 -62 -50 9 -28 25 -27 98 11 34 18 75 35 91
38 25 4 31 14 57 84 32 87 33 96 20 96 -5 0 -23 -29 -40 -65z"/>
<path d="M527 2493 c-4 -3 -7 -24 -7 -45 0 -25 -5 -41 -15 -44 -17 -7 -20 -55
-5 -82 5 -9 14 -29 19 -43 l10 -27 43 16 c51 18 107 10 88 -13 -6 -7 -34 -19
-63 -25 -68 -16 -78 -22 -68 -39 7 -11 20 -10 74 8 37 11 76 21 88 21 38 0 99
23 99 36 0 8 -11 16 -25 20 -14 3 -25 10 -25 14 0 8 -70 23 -115 24 -16 1 -21
10 -25 41 -3 22 -14 64 -25 93 -18 48 -32 61 -48 45z"/>
<path d="M907 2493 c-4 -3 -7 -30 -7 -58 0 -44 -5 -59 -35 -98 -19 -25 -35
-51 -35 -57 0 -8 24 -10 81 -7 44 3 83 8 86 11 11 11 -7 36 -26 36 -30 0 -53
28 -47 59 16 87 17 121 3 121 -7 0 -17 -3 -20 -7z"/>
<path d="M700 2437 c0 -8 -7 -17 -15 -21 -20 -7 -21 -76 0 -76 29 0 50 89 25
105 -5 3 -10 0 -10 -8z"/>
<path d="M1063 2343 c9 -2 23 -2 30 0 6 3 -1 5 -18 5 -16 0 -22 -2 -12 -5z"/>
<path d="M1000 2330 c0 -5 7 -10 15 -10 8 0 15 5 15 10 0 6 -7 10 -15 10 -8 0
-15 -4 -15 -10z"/>
<path d="M4990 2330 c-10 -7 8 -10 59 -10 41 0 72 2 70 4 -11 9 -116 14 -129
6z"/>
<path d="M1960 2305 c0 -3 6 -14 12 -25 13 -20 2 -55 -15 -51 -4 1 -24 -10
-44 -23 -20 -14 -40 -23 -45 -20 -4 3 -8 -7 -8 -23 0 -22 2 -25 10 -13 5 8 10
10 10 4 0 -7 20 -15 45 -18 52 -8 57 -19 16 -36 -23 -9 -38 -9 -66 0 -24 8
-40 9 -46 3 -15 -15 1 -62 23 -69 28 -8 87 4 123 26 21 13 35 16 45 10 13 -8
12 -12 -5 -24 -30 -23 -99 -56 -117 -56 -9 0 -18 -9 -21 -21 -3 -11 -19 -25
-36 -32 -44 -16 -48 -37 -8 -37 18 0 43 -7 55 -16 21 -15 22 -14 28 15 6 30
101 131 123 131 6 0 11 6 11 13 0 13 48 33 95 39 17 3 74 86 75 109 0 4 -21 0
-46 -9 -35 -11 -48 -12 -57 -3 -17 17 18 41 60 41 29 0 32 2 24 23 -7 17 -17
22 -47 23 -22 0 -41 2 -44 3 -3 2 -18 5 -34 7 -16 3 -38 12 -50 20 -19 13 -66
20 -66 9z m150 -189 c0 -3 -4 -8 -10 -11 -5 -3 -10 -1 -10 4 0 6 5 11 10 11 6
0 10 -2 10 -4z"/>
<path d="M4650 2250 c8 -5 31 -10 50 -10 26 0 31 3 20 10 -8 5 -31 10 -50 10
-26 0 -31 -3 -20 -10z"/>
<path d="M3425 2220 c-8 -14 13 -40 32 -40 20 0 12 44 -9 48 -9 2 -19 -2 -23
-8z"/>
<path d="M1220 2110 c0 -5 5 -10 10 -10 6 0 10 5 10 10 0 6 -4 10 -10 10 -5 0
-10 -4 -10 -10z"/>
<path d="M938 2080 c-9 -6 -19 -24 -23 -40 -4 -16 -11 -32 -16 -35 -13 -9 -11
-25 4 -25 20 0 48 39 54 76 6 37 6 38 -19 24z"/>
<path d="M4277 2073 c-15 -14 -7 -43 12 -43 10 0 24 -7 31 -15 14 -17 115 -22
105 -5 -7 11 -119 70 -133 70 -5 0 -12 -3 -15 -7z"/>
<path d="M1550 2030 c-19 -22 -39 -49 -44 -60 -5 -11 -13 -20 -18 -20 -4 0 -8
-7 -8 -15 0 -8 -8 -15 -19 -15 -10 0 -32 -7 -47 -15 -16 -8 -37 -15 -47 -15
-12 0 -17 -6 -15 -17 2 -12 15 -20 42 -23 l38 -5 -58 -30 -59 -30 65 -5 65 -5
-30 -23 c-23 -19 -40 -23 -86 -21 -59 2 -89 -12 -134 -61 -51 -56 -130 -67
-171 -23 -13 14 -25 24 -27 22 -2 -2 -17 -21 -35 -42 -47 -56 -43 -69 18 -61
38 5 56 3 74 -10 14 -9 39 -16 55 -16 25 0 30 5 36 31 12 54 131 91 158 48 15
-24 0 -69 -23 -69 -10 0 -21 -4 -24 -9 -6 -9 16 -21 39 -21 8 0 27 -12 42 -26
27 -25 27 -26 8 -40 -10 -8 -29 -14 -40 -14 -12 0 -48 -9 -80 -20 -32 -11 -70
-20 -85 -20 -15 0 -35 -9 -45 -20 -19 -21 -14 -50 9 -50 9 0 17 -15 21 -39 8
-51 26 -74 48 -65 18 7 23 24 7 24 -17 0 -11 21 11 39 17 14 19 21 10 43 -9
24 -7 29 22 46 43 27 94 37 112 22 10 -8 19 -8 33 -1 25 13 33 5 22 -24 -10
-26 4 -45 32 -45 27 0 22 -22 -12 -52 -16 -14 -30 -31 -30 -37 0 -20 31 -11
61 18 25 25 33 28 62 21 23 -5 46 -3 68 7 29 12 35 12 45 -1 9 -13 13 -12 23
10 12 26 19 27 65 8 17 -6 18 -4 13 22 -3 16 -8 36 -12 44 -7 19 24 61 31 43
8 -17 145 -18 142 -1 -2 6 9 16 23 21 24 9 31 5 76 -41 49 -50 93 -133 93
-177 0 -12 7 -44 15 -72 13 -44 13 -56 0 -99 -8 -27 -15 -55 -15 -61 0 -7 25
-27 55 -44 30 -17 57 -39 60 -49 7 -24 34 -34 41 -16 3 8 -1 30 -10 48 -8 18
-16 42 -18 52 -2 12 -15 23 -32 27 -16 5 -33 14 -37 21 -8 11 -2 76 7 87 3 3
55 -50 92 -94 8 -9 21 -13 32 -10 19 6 56 -13 114 -59 22 -18 59 -33 94 -40
63 -13 77 -33 47 -66 -26 -29 -14 -49 13 -22 12 12 22 19 22 15 0 -4 7 3 16
15 18 26 37 28 55 5 11 -13 11 -17 2 -20 -7 -3 -13 -10 -13 -16 0 -6 -6 -18
-14 -26 -28 -31 -22 -43 29 -57 94 -25 104 -22 170 56 33 38 64 81 69 95 6 14
15 24 20 22 6 -2 28 2 50 9 21 8 65 14 96 14 55 0 60 -2 104 -45 26 -24 50
-56 56 -69 6 -16 20 -27 40 -31 47 -10 49 3 8 40 -46 43 -54 58 -62 120 -9 77
4 148 31 160 13 5 27 22 32 37 11 31 23 35 41 13 20 -24 28 -18 32 26 4 49 -6
58 -36 30 -12 -12 -29 -21 -38 -21 -9 0 -18 -7 -22 -15 -11 -29 -51 -17 -84
24 -35 44 -43 95 -28 184 7 39 5 52 -7 64 -14 15 -16 13 -23 -13 -4 -16 -10
-33 -13 -39 -12 -20 -7 -160 6 -173 20 -20 16 -59 -8 -76 -12 -8 -18 -19 -15
-25 7 -11 -23 -71 -36 -71 -4 0 -28 -19 -55 -42 -54 -46 -128 -83 -188 -93
-31 -4 -62 1 -130 25 -50 16 -95 31 -100 33 -28 7 -82 53 -115 97 l-18 25 1
-32 c1 -18 -2 -33 -6 -34 -18 -3 -187 95 -218 127 -21 21 -43 62 -59 108 -24
67 -26 82 -18 148 13 119 15 132 26 159 10 26 1 49 -21 49 -20 0 -66 42 -69
62 -10 67 -69 -15 -78 -106 -5 -57 -7 -61 -50 -91 -31 -22 -62 -34 -98 -38
-48 -6 -56 -4 -78 18 -34 34 -65 21 -88 -38 -22 -57 -50 -70 -133 -61 -48 5
-66 11 -74 26 -18 33 5 48 77 48 56 0 67 3 93 29 16 15 32 43 36 60 4 18 12
30 18 28 7 -2 20 3 30 11 15 13 23 14 51 4 18 -7 48 -12 67 -11 34 1 34 1 6 9
-15 5 -36 18 -45 31 -16 18 -22 20 -40 10 -14 -8 -22 -8 -22 -1 0 37 -88 -35
-97 -80 -4 -25 -16 -35 -58 -55 -28 -14 -59 -25 -68 -25 -19 0 -22 21 -6 37
15 15 3 33 -23 33 -73 0 -132 65 -105 115 14 27 92 89 125 99 12 4 20 11 17
15 -4 8 41 1 96 -13 23 -7 31 -2 53 27 33 43 34 61 2 53 -16 -4 -35 2 -60 19
-20 14 -44 25 -52 25 -11 0 -10 6 7 29 22 30 53 32 74 4 8 -11 17 -12 38 -4
34 13 34 19 0 33 -32 13 -39 15 -70 17 -30 1 -29 12 3 50 19 23 24 38 20 56
-8 33 -15 31 -56 -15z m514 -537 c-11 -87 -50 -119 -77 -65 -20 39 1 83 48
103 33 13 35 11 29 -38z m1071 -432 c3 -5 1 -12 -5 -16 -5 -3 -10 -13 -10 -22
0 -23 -29 -53 -51 -53 -10 0 -24 10 -30 22 -10 19 -8 25 22 50 34 28 63 36 74
19z m-405 -223 c-1 -22 -37 -61 -49 -54 -15 9 -14 39 1 54 16 16 48 15 48 0z"/>
<path d="M1672 2058 c-26 -13 -24 -33 3 -33 10 0 21 10 26 23 9 24 5 26 -29
10z"/>
<path d="M2817 2054 c-13 -13 -7 -42 8 -48 22 -8 31 22 13 40 -8 8 -17 11 -21
8z"/>
<path d="M1140 2012 c0 -10 17 -38 37 -62 36 -42 36 -43 21 -70 -14 -25 -14
-29 0 -43 13 -13 13 -19 2 -31 -18 -23 -37 -20 -81 15 -21 16 -55 33 -76 35
-62 9 -67 12 -53 30 10 11 10 18 2 26 -8 8 -13 6 -18 -8 -11 -28 -24 -34 -81
-34 -40 0 -53 4 -53 15 0 8 14 17 35 21 39 7 48 15 39 37 -8 21 -61 3 -69 -24
-4 -10 -12 -19 -18 -19 -7 0 -24 -12 -38 -27 -14 -16 -35 -36 -48 -46 -22 -18
-22 -18 -4 -46 48 -74 56 -80 102 -71 57 10 86 39 77 75 -7 26 -9 27 -53 20
-25 -4 -52 -9 -59 -12 -22 -8 -17 25 5 37 30 15 88 13 95 -5 3 -9 18 -15 35
-15 34 0 51 -22 51 -66 0 -20 3 -24 13 -16 6 5 46 12 88 14 101 6 146 30 178
91 13 26 30 47 37 47 17 0 19 36 3 46 -6 3 -9 14 -6 24 4 16 1 17 -22 9 -37
-13 -81 4 -81 30 0 19 -26 41 -49 41 -6 0 -11 -8 -11 -18z"/>
<path d="M2637 2003 c-31 -8 -77 -123 -49 -123 5 0 25 18 45 39 20 21 41 41
48 43 9 3 9 9 0 26 -6 12 -15 21 -19 21 -4 -1 -15 -3 -25 -6z"/>
<path d="M2740 1873 c0 -17 -4 -43 -10 -57 -7 -21 -6 -26 5 -26 9 0 15 10 16
28 0 15 2 34 4 43 1 9 -1 23 -6 30 -6 10 -9 4 -9 -18z"/>
<path d="M2499 1864 c-13 -7 -45 -13 -71 -14 -27 0 -48 -4 -48 -8 0 -16 51
-32 100 -32 44 0 51 3 64 29 14 27 14 29 -3 34 -10 2 -29 -2 -42 -9z"/>
<path d="M2997 1862 c-30 -33 -17 -62 29 -62 11 0 14 10 12 37 -4 42 -18 51
-41 25z"/>
<path d="M2267 1812 c-21 -23 -22 -38 -3 -45 17 -7 46 23 46 46 0 22 -23 22
-43 -1z"/>
<path d="M3139 1800 c-4 -8 -4 -29 -1 -47 2 -17 0 -45 -6 -62 -9 -25 -8 -31 2
-31 8 0 16 6 18 13 7 19 -6 144 -13 127z"/>
<path d="M2796 1746 c-38 -47 -45 -66 -22 -66 19 0 76 69 76 92 0 29 -15 21
-54 -26z"/>
<path d="M1975 1749 c-18 -22 -23 -35 -16 -42 8 -8 21 -1 46 23 19 18 32 37
29 42 -10 16 -33 7 -59 -23z"/>
<path d="M2479 1741 c-27 -22 -21 -42 19 -69 22 -14 22 -14 22 37 0 56 -6 61
-41 32z"/>
<path d="M939 1700 c-23 -19 -23 -19 -3 -20 20 0 44 17 44 32 0 14 -17 9 -41
-12z"/>
<path d="M1891 1622 c-25 -35 -26 -42 -7 -42 20 0 50 50 38 62 -6 6 -17 -1
-31 -20z"/>
<path d="M3198 1588 c-2 -17 -13 -25 -41 -31 -31 -7 -36 -12 -26 -23 6 -8 26
-14 44 -14 l33 0 -5 -94 c-3 -51 -2 -96 3 -99 5 -3 10 29 10 71 2 94 17 162
39 178 15 11 15 13 -4 23 -31 17 -49 13 -53 -11z"/>
<path d="M2930 1567 c0 -28 -17 -47 -42 -47 -30 0 -20 -17 12 -22 36 -5 57 14
66 60 6 28 4 32 -15 32 -15 0 -21 -6 -21 -23z"/>
<path d="M2497 1546 c-9 -22 -9 -139 -1 -160 3 -9 10 -13 15 -10 11 6 11 141
0 168 -7 18 -8 18 -14 2z"/>
<path d="M2783 1543 c15 -2 37 -2 50 0 12 2 0 4 -28 4 -27 0 -38 -2 -22 -4z"/>
<path d="M2260 1453 c2 -67 47 -179 65 -161 9 9 -26 162 -38 170 -19 12 -27 9
-27 -9z"/>
<path d="M2670 1324 c-14 -36 3 -56 25 -28 17 22 16 45 -2 51 -7 3 -18 -8 -23
-23z"/>
<path d="M4955 1270 c-3 -5 1 -10 9 -10 9 0 16 5 16 10 0 6 -4 10 -9 10 -6 0
-13 -4 -16 -10z"/>
<path d="M1740 1259 c0 -8 4 -19 10 -25 5 -5 10 -45 11 -89 1 -66 6 -87 25
-117 14 -21 22 -38 20 -38 -7 0 34 -144 44 -154 4 -4 13 -5 19 -2 10 7 -7 79
-34 141 -12 27 -26 105 -39 209 -5 40 -56 108 -56 75z"/>
<path d="M4910 1240 c0 -5 6 -10 14 -10 8 0 18 5 21 10 3 6 -3 10 -14 10 -12
0 -21 -4 -21 -10z"/>
<path d="M1514 1208 c3 -13 6 -26 6 -30 0 -12 48 -10 55 2 11 18 -15 50 -42
50 -21 0 -24 -3 -19 -22z"/>
<path d="M2795 1161 c-35 -50 -17 -58 49 -21 66 38 75 48 44 54 -47 9 -68 1
-93 -33z"/>
<path d="M4830 1029 c0 -5 16 -9 35 -9 19 0 35 4 35 9 0 5 -16 9 -35 9 -19 0
-35 -4 -35 -9z"/>
<path d="M4552 929 c-15 -24 -10 -34 13 -26 15 6 22 47 7 47 -4 0 -13 -9 -20
-21z"/>
<path d="M2040 911 c0 -17 27 -37 37 -27 7 7 -17 46 -27 46 -6 0 -10 -9 -10
-19z"/>
<path d="M4375 921 c-3 -5 -1 -12 5 -16 5 -3 10 1 10 9 0 18 -6 21 -15 7z"/>
<path d="M1620 900 c0 -5 4 -10 8 -10 17 0 43 -59 36 -85 -5 -21 -3 -25 15
-25 18 0 21 6 21 38 0 42 -5 51 -40 75 -28 19 -40 21 -40 7z"/>
<path d="M3372 891 c-11 -6 -10 -16 4 -50 l16 -41 37 32 36 33 -39 18 c-44 20
-38 19 -54 8z"/>
<path d="M2080 862 c0 -16 34 -40 73 -50 30 -9 37 -8 37 4 0 14 -32 32 -87 48
-13 4 -23 3 -23 -2z"/>
<path d="M3308 811 c-16 -9 -28 -19 -28 -23 0 -14 37 -8 50 7 20 24 7 32 -22
16z"/>
<path d="M1865 801 c-8 -14 34 -81 51 -81 18 0 18 3 -6 50 -20 40 -33 49 -45
31z"/>
<path d="M2220 783 c0 -25 52 -153 62 -153 4 0 8 5 8 11 0 23 -32 134 -42 147
-15 17 -28 15 -28 -5z"/>
<path d="M1779 772 c13 -25 40 -46 48 -39 6 6 -42 57 -53 57 -3 0 0 -8 5 -18z"/>
<path d="M2432 726 c-50 -59 -55 -79 -14 -57 26 14 101 -8 164 -48 l47 -30
-19 -38 c-17 -36 -18 -53 -1 -53 4 0 23 29 41 65 l33 65 -24 19 c-13 11 -37
20 -53 21 -44 0 -136 32 -136 46 0 7 5 25 10 40 6 15 9 28 8 29 -2 1 -27 -25
-56 -59z"/>
<path d="M3238 740 c-19 -34 -59 -47 -94 -31 -31 14 -79 -8 -89 -40 -12 -36
10 -44 50 -20 40 23 117 29 133 9 5 -7 12 -28 14 -47 4 -29 0 -39 -29 -64 -18
-16 -36 -39 -39 -51 -8 -35 -58 -55 -217 -86 -155 -31 -241 -38 -252 -20 -3 5
-22 10 -40 10 -19 0 -54 6 -77 14 -84 27 -115 29 -138 6 -42 -42 -21 -52 125
-57 61 -2 119 -4 129 -4 11 0 31 -8 45 -18 45 -30 89 -44 123 -37 18 4 43 7
56 6 28 0 51 11 109 56 35 27 48 32 59 23 10 -8 22 -5 51 12 21 13 49 25 63
27 14 1 44 9 68 17 l42 14 0 -44 c0 -31 -5 -47 -17 -55 -13 -8 -14 -13 -5 -16
6 -3 12 -14 12 -25 0 -20 4 -23 52 -33 l27 -6 -14 40 c-8 22 -10 40 -5 40 15
0 12 26 -5 40 -34 28 -10 100 33 100 15 0 37 7 48 15 19 12 24 12 40 0 33 -25
47 -19 40 16 -5 29 -4 31 17 25 16 -4 26 1 35 14 17 28 5 51 -24 44 -14 -4
-24 -2 -24 4 0 6 -9 14 -20 17 -11 4 -29 23 -39 42 -11 22 -21 32 -25 25 -4
-7 -2 -21 4 -32 14 -26 5 -40 -26 -40 -29 0 -31 -13 -4 -40 11 -11 20 -22 20
-25 0 -2 -16 -15 -37 -29 -30 -21 -40 -23 -57 -14 -55 29 -76 83 -76 199 0 57
-16 64 -42 19z"/>
<path d="M3857 714 c-19 -20 14 -159 37 -151 17 6 19 46 2 71 -8 13 -18 38
-23 55 -5 18 -12 29 -16 25z"/>
<path d="M1890 657 c0 -19 11 -31 46 -52 52 -31 74 -27 74 12 0 42 -11 51 -68
59 -51 6 -52 6 -52 -19z"/>
<path d="M3015 632 c-19 -4 -34 -19 -35 -33 0 -11 49 3 60 16 13 16 2 23 -25
17z"/>
<path d="M4302 600 c0 -14 2 -19 5 -12 2 6 2 18 0 25 -3 6 -5 1 -5 -13z"/>
<path d="M2944 585 c-25 -18 -14 -27 29 -23 l35 3 -23 17 c-19 15 -25 15 -41
3z"/>
<path d="M3950 565 c0 -7 7 -18 15 -25 12 -10 14 -24 9 -56 -7 -52 5 -95 15
-54 12 44 34 34 60 -26 13 -30 25 -67 26 -82 3 -41 3 -42 28 -51 13 -5 38 -4
65 4 23 7 51 11 62 8 22 -6 78 3 98 15 7 5 10 16 6 25 -5 13 -20 17 -70 17
-78 0 -107 13 -131 57 -18 34 -18 35 1 49 19 14 19 14 -2 44 -12 16 -22 34
-22 40 0 5 -11 10 -24 10 -16 0 -27 7 -31 20 -5 16 -15 19 -56 18 -32 0 -49
-5 -49 -13z"/>
<path d="M4251 545 c0 -16 4 -37 9 -45 8 -12 10 -11 9 5 -1 11 -5 31 -9 45 -8
24 -8 24 -9 -5z"/>
<path d="M2806 515 c-21 -7 -43 -18 -49 -24 -21 -21 47 -11 93 14 38 20 41 24
20 24 -14 0 -42 -6 -64 -14z"/>
<path d="M3790 443 c0 -27 4 -53 8 -59 5 -9 83 -54 125 -72 4 -2 7 30 5 72 -3
79 -17 100 -31 46 -11 -43 -36 -36 -65 18 -13 23 -28 42 -33 42 -5 0 -9 -21
-9 -47z"/>
<path d="M2696 469 c-64 -15 -91 -49 -38 -49 17 0 38 12 56 30 16 17 27 30 25
29 -2 -1 -22 -5 -43 -10z"/>
<path d="M4191 431 c-16 -10 -6 -31 14 -31 14 0 27 24 18 34 -8 8 -15 7 -32
-3z"/>
<path d="M3733 372 c-13 -2 -23 -9 -23 -17 0 -16 57 -25 70 -10 12 14 -18 32
-47 27z"/>
<path d="M3520 357 c0 -5 58 -37 67 -37 11 0 0 19 -14 23 -10 2 -26 8 -35 12
-10 4 -18 5 -18 2z"/>
<path d="M3585 307 c-32 -33 -39 -77 -17 -99 11 -11 211 -13 222 -2 3 3 -6 14
-19 25 -19 16 -33 18 -72 13 l-49 -7 0 40 c0 34 -14 63 -29 63 -4 0 -20 -15
-36 -33z"/>
<path d="M3259 249 c-15 -12 -37 -18 -58 -17 -19 2 -36 -2 -38 -9 -5 -15 46
-21 209 -26 136 -4 168 4 168 43 0 13 -6 18 -23 16 -13 -1 -28 -6 -35 -10 -6
-4 -25 0 -41 9 -41 21 -51 19 -51 -9 0 -21 -16 -36 -40 -36 -5 0 -21 13 -37
29 -29 29 -29 29 -54 10z"/>
<path d="M3857 248 c-26 -14 -20 -28 13 -28 19 0 30 5 30 14 0 19 -22 26 -43
14z"/>
</g>
</svg>
