<?xml version="1.0" standalone="no"?>
<!DOCTYPE svg PUBLIC "-//W3C//DTD SVG 20010904//EN"
 "http://www.w3.org/TR/2001/REC-SVG-20010904/DTD/svg10.dtd">
<svg version="1.0" xmlns="http://www.w3.org/2000/svg"
 width="461.000000pt" height="461.000000pt" viewBox="0 0 461.000000 461.000000"
 preserveAspectRatio="xMidYMid meet">
<metadata>
Created by potrace 1.14, written by Peter Selinger 2001-2017
</metadata>
<g transform="translate(0.000000,461.000000) scale(0.100000,-0.100000)"
fill="#000000" stroke="none">
<path d="M2478 4403 c-59 -6 -44 -19 18 -16 40 2 67 -3 95 -17 21 -11 49 -20
62 -20 13 0 31 -6 40 -12 14 -11 -12 -13 -140 -13 -87 0 -163 3 -169 7 -6 4
-26 3 -45 -2 -53 -16 -99 -20 -99 -9 0 14 -65 -16 -141 -66 -88 -59 -256 -227
-316 -317 -26 -39 -49 -65 -51 -58 -3 7 0 15 4 19 9 6 34 56 34 68 0 13 -168
-158 -239 -244 -106 -128 -118 -143 -138 -183 -10 -19 -23 -39 -29 -45 -6 -5
-33 -50 -59 -100 -26 -49 -62 -110 -79 -135 -31 -45 -33 -49 -35 -83 0 -10 -5
-16 -10 -13 -9 6 -44 -68 -57 -119 -3 -16 -15 -39 -25 -51 -20 -22 -23 -73 -4
-87 7 -6 6 -10 -2 -14 -10 -3 -12 -52 -8 -211 6 -202 12 -251 55 -434 10 -43
14 -78 9 -78 -5 0 -9 8 -9 19 0 27 -24 43 -62 39 l-33 -3 -3 -72 c-3 -72 -3
-73 22 -73 41 0 78 21 73 42 -3 10 -2 18 3 18 12 0 20 -27 20 -63 0 -23 -3
-28 -9 -18 -8 13 -15 13 -50 1 -60 -19 -73 -39 -79 -118 -4 -67 26 -280 49
-340 6 -15 14 -47 19 -72 5 -25 11 -56 15 -70 5 -18 4 -21 -3 -10 -6 8 -26 77
-46 153 -39 150 -61 301 -53 354 3 18 4 33 1 33 -3 0 -39 -29 -81 -64 -72 -61
-77 -63 -109 -53 -24 7 -34 17 -37 36 l-4 26 -2 -27 c-1 -22 -6 -28 -23 -28
-20 0 -21 -1 -3 -20 26 -29 3 -25 -24 4 -20 22 -21 24 -4 23 16 -2 18 6 18 75
0 48 5 82 13 89 24 25 14 39 -28 39 -26 0 -40 5 -40 13 0 15 35 47 51 47 8 0
9 13 6 38 -4 20 -7 196 -7 390 -1 340 -2 352 -21 352 -14 0 -20 -10 -26 -42
l-7 -43 -11 39 c-6 22 -17 42 -24 44 -20 7 -4 -1039 16 -1053 13 -10 13 -13 0
-23 -11 -10 -19 -8 -40 8 -16 13 -27 16 -29 9 -3 -9 -10 -9 -27 0 -12 7 -34
11 -49 10 -15 -2 -41 5 -59 14 -35 19 -83 23 -83 7 0 -13 -77 25 -107 52 -17
16 -30 19 -56 14 -19 -4 -40 -13 -47 -21 -7 -8 -19 -15 -26 -15 -8 0 -33 -6
-55 -13 l-41 -12 7 -50 c8 -66 50 -232 76 -301 22 -59 26 -61 91 -28 35 18 43
18 28 0 -6 -8 -27 -20 -46 -26 -44 -15 -44 -32 4 -140 47 -105 113 -208 130
-202 6 2 12 -3 12 -12 0 -9 -4 -16 -9 -16 -23 0 80 -160 193 -300 72 -89 222
-238 325 -322 159 -130 397 -273 560 -338 l48 -18 27 56 c15 31 38 73 50 92
13 19 49 75 81 124 66 102 180 225 212 229 12 2 26 6 29 10 13 13 26 7 20 -8
-3 -8 0 -15 7 -15 7 0 4 -5 -5 -11 -9 -5 -15 -16 -12 -23 3 -8 0 -25 -7 -38
-7 -13 -14 -34 -15 -47 -2 -13 -8 -27 -15 -32 -7 -4 -9 -17 -5 -33 5 -19 3
-26 -9 -26 -10 0 -15 -10 -15 -33 0 -21 -8 -41 -20 -52 -11 -10 -20 -24 -20
-31 0 -8 -10 -25 -22 -39 -12 -14 -22 -33 -23 -43 -1 -9 -5 -27 -9 -38 -5 -17
-2 -23 16 -27 12 -4 25 -1 29 4 4 8 9 8 14 0 8 -15 -9 -37 -35 -44 -13 -3 -21
1 -25 14 -9 28 -20 23 -44 -16 -21 -36 -10 -49 18 -22 8 7 11 7 8 1 -10 -17
10 -30 72 -48 76 -22 81 -21 81 17 0 35 49 187 60 187 4 0 3 -21 -2 -47 -5
-27 -10 -78 -12 -115 l-3 -66 61 -12 c34 -6 140 -14 238 -17 l176 -6 -7 33
c-6 29 -10 33 -46 36 -29 2 -47 11 -65 32 -24 27 -56 47 -72 44 -5 -1 -8 7 -8
17 0 12 11 23 31 30 39 14 52 6 47 -28 -3 -24 -1 -27 18 -23 12 2 35 -3 52
-12 24 -12 122 -24 214 -26 13 0 15 -8 11 -42 -3 -32 -2 -39 6 -28 6 8 11 23
11 32 0 9 4 19 9 23 6 3 5 -10 -1 -31 -5 -20 -7 -38 -4 -41 11 -11 76 8 76 23
0 8 4 13 9 10 5 -3 12 1 15 9 3 9 -1 18 -9 21 -8 4 -15 12 -15 20 0 16 16 19
25 4 3 -6 18 -10 32 -10 21 0 23 -3 14 -14 -10 -11 -8 -15 6 -19 17 -4 17 -5
1 -6 -10 0 -18 -5 -18 -9 0 -24 388 71 405 99 3 5 -5 32 -18 60 -27 55 -25 89
4 89 12 0 19 7 19 19 0 11 5 23 10 26 6 3 10 1 10 -5 0 -7 17 -10 43 -9 40 2
82 -9 173 -46 l42 -16 110 65 c151 90 256 171 391 301 215 207 346 386 481
656 115 229 201 506 217 703 l6 69 -120 -6 -120 -6 -13 57 c-33 151 -44 191
-71 244 -16 32 -29 70 -29 85 0 15 -7 74 -17 131 -12 71 -14 105 -7 110 6 4
16 16 22 27 11 20 11 20 12 -1 0 -32 31 -40 52 -14 10 12 16 26 13 30 -3 5 -1
11 5 15 5 3 10 -3 10 -13 0 -11 7 -22 15 -26 12 -4 15 4 15 42 0 34 -3 43 -10
32 -13 -20 -13 -4 0 20 6 10 6 21 2 24 -10 6 -120 -20 -146 -35 -14 -8 -21 -8
-27 3 -18 28 -6 36 81 54 50 10 90 23 91 28 1 6 0 23 -1 38 -2 40 17 43 24 3
8 -40 17 -42 94 -20 58 18 60 21 36 101 -11 38 -20 54 -32 54 -9 0 -89 -20
-176 -45 -87 -25 -162 -45 -166 -45 -3 0 -19 33 -34 73 -32 81 -164 355 -224
462 -21 39 -69 117 -107 174 -60 93 -68 111 -72 165 -5 60 -46 156 -139 323
-56 99 -49 74 11 -44 31 -59 53 -113 51 -120 -22 -55 -136 102 -136 186 0 11
-5 23 -10 26 -6 3 -7 17 -4 29 6 26 -21 45 -30 20 -3 -8 -12 -14 -19 -14 -19
0 -44 -30 -52 -62 -4 -16 -11 -28 -16 -28 -28 0 -81 33 -125 79 -27 28 -54 51
-61 51 -19 0 -4 -26 23 -41 14 -7 30 -22 36 -33 8 -15 -2 -13 -53 16 -35 19
-85 43 -111 53 -27 10 -48 22 -48 26 0 14 114 11 129 -3 10 -9 12 -9 7 -1 -5
9 26 11 126 8 132 -3 177 -12 210 -42 10 -9 18 -13 18 -10 0 18 -86 67 -117
67 -18 0 -73 9 -121 19 -48 10 -152 27 -232 36 -80 9 -209 25 -287 36 -138 18
-175 20 -255 12z m309 -83 c20 0 33 -3 30 -7 -11 -10 -80 -4 -91 8 -8 9 -6 10
7 5 10 -3 35 -6 54 -6z m662 -189 c6 -35 5 -51 -3 -51 -17 1 -46 26 -46 39 0
17 30 74 36 68 3 -2 8 -28 13 -56z m-839 31 c0 -4 -5 -13 -12 -20 -7 -7 -16
-12 -20 -12 -13 0 -9 28 5 33 19 8 27 8 27 -1z m-87 -49 c-7 -2 -13 -12 -13
-20 0 -15 -44 -63 -57 -63 -12 0 -69 -57 -66 -66 4 -13 -8 -27 -42 -46 -27
-15 -30 -21 -27 -59 2 -24 0 -39 -5 -36 -5 4 -10 0 -10 -8 0 -8 6 -15 14 -15
15 0 17 -38 3 -60 -7 -11 -8 -7 -4 15 5 29 4 30 -32 30 -23 0 -39 -5 -42 -14
-3 -10 0 -12 11 -8 10 4 18 -1 22 -13 10 -31 32 -45 50 -30 9 7 15 8 15 2 0
-5 -18 -19 -40 -31 -22 -11 -39 -17 -39 -13 3 18 -2 32 -11 32 -5 0 -10 -12
-10 -26 0 -22 -2 -25 -15 -14 -10 8 -15 9 -15 1 0 -6 -14 -18 -31 -26 -47 -25
-91 -68 -86 -85 4 -15 -15 -40 -30 -40 -13 0 -37 -44 -34 -63 1 -9 -5 -24 -13
-33 -9 -9 -14 -20 -11 -25 4 -5 -8 -29 -24 -53 -17 -25 -31 -50 -31 -56 0 -6
-8 -25 -17 -43 -24 -45 -43 -97 -48 -135 -4 -29 -12 -49 -37 -92 -19 -35 -20
-42 -2 -56 14 -11 15 -17 7 -20 -7 -3 -13 -10 -13 -16 0 -5 -10 -23 -21 -40
-18 -25 -19 -32 -8 -40 11 -7 11 -11 2 -15 -7 -2 -13 -12 -13 -21 0 -10 -21
-29 -49 -44 -48 -26 -49 -26 -42 -5 17 59 127 383 158 467 33 91 110 253 139
295 8 11 14 31 14 46 0 14 9 34 21 45 20 18 69 111 69 131 0 5 9 18 19 27 11
10 29 37 39 59 20 42 101 127 120 127 6 0 14 9 17 20 3 11 15 20 25 20 13 0
17 5 14 14 -3 8 5 20 19 28 13 7 49 28 78 45 30 18 63 32 74 32 11 0 14 -3 8
-6z m1100 -170 c5 -26 4 -26 -9 -9 -7 10 -11 23 -8 27 8 14 11 11 17 -18z
m-1075 -15 c-3 -7 -18 -14 -34 -16 -28 -3 -28 -3 -9 12 24 19 48 21 43 4z m12
-68 c0 -5 -7 -10 -16 -10 -8 0 -12 5 -9 10 3 6 10 10 16 10 5 0 9 -4 9 -10z
m-42 -12 c-3 -7 -18 -14 -34 -16 l-29 -2 25 14 c31 19 43 20 38 4z m-88 -22
c0 -17 -30 -50 -38 -42 -5 6 25 56 33 56 3 0 5 -6 5 -14z m-72 -15 c3 -8 -1
-12 -9 -9 -7 2 -15 10 -17 17 -3 8 1 12 9 9 7 -2 15 -10 17 -17z m22 -56 c0
-5 -5 -3 -10 5 -5 8 -10 20 -10 25 0 6 5 3 10 -5 5 -8 10 -19 10 -25z m148 22
c10 4 13 2 8 -5 -4 -7 -21 -12 -37 -12 -25 0 -28 2 -17 14 7 8 17 11 22 6 5
-5 15 -6 24 -3z m82 -13 c0 -2 -7 -4 -15 -4 -8 0 -15 4 -15 10 0 5 7 7 15 4 8
-4 15 -8 15 -10z m105 4 c14 -6 25 -18 25 -25 0 -9 -5 -11 -12 -7 -7 5 -25 7
-40 6 -18 -2 -28 3 -28 11 0 28 16 33 55 15z m-318 -30 c-3 -8 -6 -5 -6 6 -1
11 2 17 5 13 3 -3 4 -12 1 -19z m400 -40 c-3 -8 -6 -5 -6 6 -1 11 2 17 5 13 3
-3 4 -12 1 -19z m-1167 8 c0 -11 -19 -15 -25 -6 -3 5 1 10 9 10 9 0 16 -2 16
-4z m1003 -23 c29 -9 61 -22 72 -30 19 -13 54 -100 55 -135 0 -10 4 -18 9 -18
5 0 9 -10 9 -22 0 -13 3 -33 7 -45 6 -20 4 -23 -16 -23 l-24 -1 24 -20 c31
-25 42 -116 19 -151 -9 -14 -13 -36 -11 -55 6 -40 -13 -99 -35 -108 -13 -5
-14 -8 -3 -14 10 -7 11 -13 2 -30 -11 -20 -13 -20 -44 17 -17 20 -36 40 -42
44 -15 11 -38 -19 -73 -96 -3 -5 0 -6 6 -2 5 3 12 -1 16 -9 8 -21 -14 -19 -30
3 -13 16 -16 15 -38 -12 -18 -21 -29 -26 -45 -21 -11 3 -21 10 -21 15 0 5 32
36 70 71 39 34 70 68 70 75 0 20 -10 17 -39 -8 l-26 -23 23 26 c38 44 21 68
-22 32 -18 -16 -18 -14 1 8 30 33 14 54 -25 33 -15 -8 -33 -14 -39 -14 -7 0
-13 -4 -13 -10 0 -5 -7 -10 -15 -10 -8 0 -15 -4 -15 -10 0 -16 -42 -60 -52
-54 -14 9 -9 -19 8 -37 14 -16 14 -19 -5 -38 -25 -25 -23 -32 38 -131 20 -34
22 -63 3 -55 -8 3 -21 0 -28 -6 -9 -8 -14 -8 -14 -1 0 6 5 14 10 17 29 18 -3
95 -40 95 -10 0 -21 7 -24 16 -11 30 -27 2 -24 -44 4 -70 48 -96 48 -29 0 22
3 28 11 20 16 -16 7 -64 -15 -77 -14 -8 -20 -8 -23 2 -3 6 -11 12 -19 12 -9 0
-12 -4 -9 -10 8 -12 -17 -13 -31 -1 -5 5 -26 14 -46 20 -97 31 -171 192 -172
373 -1 65 3 101 12 110 6 6 12 22 12 34 0 38 60 139 113 191 61 59 105 86 207
124 88 32 159 36 233 12z m212 -2 c3 -5 1 -12 -5 -16 -5 -3 -10 1 -10 9 0 18
6 21 15 7z m-1239 -28 c-10 -10 -19 5 -10 18 6 11 8 11 12 0 2 -7 1 -15 -2
-18z m-6 -22 c0 -11 -39 -59 -40 -49 0 14 23 58 32 58 4 0 8 -4 8 -9z m1284
-37 c14 -20 17 -35 12 -66 -4 -25 -2 -46 5 -54 7 -8 12 -28 11 -44 0 -17 3
-30 8 -30 4 0 7 -22 5 -49 -4 -75 4 -103 26 -96 10 4 23 4 28 0 14 -8 2 -35
-16 -35 -8 0 -14 -8 -13 -17 3 -25 -10 -63 -21 -63 -5 0 -9 -5 -9 -11 0 -6 7
-8 15 -5 8 3 22 9 30 12 22 9 19 -19 -6 -50 -25 -31 -16 -55 11 -31 17 16 20
15 37 -4 9 -12 23 -21 30 -21 15 0 17 -16 3 -25 -5 -3 -10 -2 -10 3 0 6 -9 8
-20 5 -11 -3 -20 -12 -20 -20 0 -8 -4 -12 -8 -9 -4 2 -14 -5 -22 -17 -12 -20
-12 -21 4 -8 14 11 19 12 25 3 4 -7 15 -10 23 -7 23 9 32 -12 14 -31 -18 -18
-21 -34 -6 -34 6 0 10 -9 10 -20 0 -11 5 -20 10 -20 6 0 10 10 10 23 0 16 3
19 9 8 5 -8 16 -11 25 -8 9 4 16 2 16 -3 0 -5 -9 -12 -20 -15 -23 -7 -26 -30
-5 -42 11 -7 12 -16 3 -51 -8 -32 -7 -46 2 -57 10 -12 10 -15 -2 -15 -23 0
-60 -46 -60 -75 0 -23 -2 -24 -14 -8 -8 11 -13 13 -14 6 0 -14 -26 -18 -33 -5
-2 4 -2 1 0 -7 5 -18 -15 -31 -49 -31 -47 0 -54 -7 -50 -50 2 -22 -1 -46 -6
-53 -6 -7 -12 -36 -14 -65 -2 -33 -7 -52 -15 -52 -7 0 -13 6 -13 14 0 8 6 16
13 19 9 4 9 7 -1 18 -18 19 -29 -1 -24 -45 3 -23 10 -36 23 -39 23 -6 25 -35
4 -43 -24 -9 -46 15 -39 42 4 17 2 24 -7 24 -18 0 -79 127 -79 164 0 23 -3 26
-13 17 -8 -6 -17 -8 -20 -4 -4 3 -7 1 -7 -6 0 -15 -25 -41 -40 -41 -6 0 -13
-7 -16 -15 -4 -8 -10 -13 -15 -10 -11 7 -32 -33 -25 -50 10 -27 -14 -86 -40
-95 -14 -6 -27 -10 -29 -10 -5 0 16 78 53 197 6 17 7 34 4 38 -4 3 -2 9 4 13
5 4 22 28 37 54 15 27 50 75 77 107 123 148 174 264 200 451 12 89 12 338 0
355 -11 15 -22 115 -13 115 4 0 16 -12 27 -26z m-1527 -441 c-3 -10 -5 -2 -5
17 0 19 2 27 5 18 2 -10 2 -26 0 -35z m1163 -88 c-13 -14 -28 -25 -34 -25 -6
0 3 11 19 25 39 31 45 32 15 0z m195 -75 c0 -23 -29 -23 -43 0 -12 20 -11 21
15 18 17 -2 28 -9 28 -18z m-267 -11 c12 -18 11 -20 -5 -17 -10 2 -19 11 -21
21 -5 23 10 21 26 -4z m213 -4 l29 -16 -22 -29 c-20 -28 -60 -60 -73 -60 -12
0 -4 28 10 34 10 3 15 19 15 46 0 45 0 46 41 25z m-1304 -87 c-2 -18 -4 -4 -4
32 0 36 2 50 4 33 2 -18 2 -48 0 -65z m1740 50 c-3 -8 -6 -5 -6 6 -1 11 2 17
5 13 3 -3 4 -12 1 -19z m-547 -43 c0 -20 -40 -65 -58 -65 -15 1 -15 2 1 11 11
6 17 22 17 43 0 18 3 36 7 39 8 9 33 -12 33 -28z m550 16 c0 -5 -7 -12 -16
-15 -14 -5 -15 -4 -4 9 14 17 20 19 20 6z m40 -163 c0 -9 4 -8 10 2 8 12 10 9
10 -13 0 -16 -4 -26 -10 -22 -6 3 -10 -5 -10 -19 0 -14 -5 -28 -11 -31 -18
-12 -24 5 -10 27 11 18 11 20 -3 15 -12 -5 -16 0 -16 23 0 23 4 30 20 30 11 0
20 -6 20 -12z m-1783 -20 c-3 -8 -6 -5 -6 6 -1 11 2 17 5 13 3 -3 4 -12 1 -19z
m19 -243 c-4 -15 -8 -26 -10 -24 -2 2 -6 56 -8 119 l-6 115 16 -91 c8 -50 12
-103 8 -119z m1710 168 c-10 -10 -19 5 -10 18 6 11 8 11 12 0 2 -7 1 -15 -2
-18z m-1423 -171 c19 -49 22 -65 13 -75 -22 -22 -27 -47 -11 -53 18 -7 20 -24
2 -24 -7 0 -21 -14 -31 -30 -14 -25 -16 -37 -7 -60 7 -21 7 -29 -1 -27 -5 1
-17 -18 -25 -43 -24 -74 -32 -110 -22 -104 5 3 9 1 9 -5 0 -5 -4 -11 -8 -13
-5 -1 -12 -18 -15 -36 -4 -21 -3 -31 3 -27 15 9 12 -29 -2 -44 -11 -10 -9 -11
6 -5 14 5 17 3 14 -7 -3 -8 -11 -13 -18 -11 -8 2 -10 -3 -6 -13 3 -9 -1 -26
-9 -38 -19 -27 -19 -47 0 -47 17 0 20 -25 5 -35 -6 -4 -8 -10 -5 -15 3 -4 -3
-11 -12 -14 -15 -6 -15 -8 -3 -16 13 -8 12 -12 -5 -24 -27 -20 -36 -20 -28 1
6 15 5 16 -9 3 -9 -8 -14 -17 -12 -19 5 -6 -77 -81 -89 -81 -14 0 -47 -30 -47
-43 0 -5 6 -4 14 2 17 14 28 1 16 -19 -5 -8 -5 -21 1 -31 6 -11 5 -28 -1 -44
-15 -39 -13 -41 13 -14 15 15 20 28 15 36 -7 8 -3 10 11 6 12 -3 21 -6 21 -7
0 -1 -11 -17 -25 -36 -28 -38 -32 -62 -11 -79 11 -9 15 -9 19 1 4 8 6 7 6 -4
1 -20 -19 -24 -35 -8 -7 7 -10 4 -10 -12 1 -13 -4 -22 -11 -21 -7 2 -13 -7
-14 -20 0 -12 -3 -44 -6 -71 -5 -52 3 -116 15 -116 4 0 12 9 17 19 50 95 70
130 89 151 13 14 29 36 36 50 14 27 18 33 81 100 23 25 53 62 66 83 13 21 39
58 58 83 19 25 44 66 55 92 26 57 70 186 70 203 0 7 26 65 57 128 99 202 170
249 356 237 55 -3 104 -9 109 -12 16 -10 -13 -24 -50 -24 -20 0 -35 -6 -39
-16 -4 -12 -8 -13 -14 -3 -5 9 -11 10 -21 2 -7 -6 -39 -14 -71 -18 -73 -8 -94
-28 -118 -109 -24 -77 -24 -77 6 -41 l24 30 1 -27 c0 -20 4 -26 15 -22 8 4 15
1 15 -5 0 -6 7 -11 15 -11 13 0 13 -4 -1 -37 -9 -21 -21 -54 -26 -73 -5 -19
-14 -39 -19 -44 -5 -6 -9 -23 -9 -38 0 -15 -4 -28 -10 -28 -5 0 -10 -7 -10
-15 0 -8 -4 -15 -9 -15 -5 0 -13 -15 -17 -32 -4 -18 -9 -27 -12 -19 -3 9 -10
2 -18 -18 -8 -18 -23 -35 -33 -38 -11 -3 -29 -26 -41 -52 -12 -25 -33 -63 -46
-83 -68 -106 -80 -124 -91 -136 -7 -7 -16 -24 -19 -38 -3 -13 -10 -24 -15 -24
-4 0 -16 -16 -25 -35 -9 -19 -22 -35 -29 -35 -8 0 -17 -9 -20 -20 -3 -11 -15
-25 -26 -30 -10 -6 -19 -20 -19 -30 0 -11 -4 -20 -8 -20 -11 0 -82 -63 -82
-73 0 -4 -10 -22 -22 -40 -48 -71 -55 -83 -63 -107 -4 -14 -17 -36 -30 -50
-39 -44 -75 -132 -75 -188 0 -25 -5 -35 -20 -39 -13 -3 -20 -14 -20 -29 0 -31
-11 -30 -44 3 l-28 27 7 156 c9 226 22 370 46 521 19 117 20 141 9 195 -12 61
-11 65 28 181 55 162 57 169 97 413 35 207 67 344 85 355 5 3 5 -8 0 -25 -5
-17 -5 -28 -1 -26 4 3 7 -11 5 -32 -2 -20 -4 -37 -5 -37 -1 0 -3 -20 -3 -44
-1 -25 -8 -47 -14 -49 -7 -2 -12 -10 -12 -18 0 -26 19 -5 41 44 12 26 25 49
29 52 4 3 15 20 24 38 11 22 13 32 5 32 -7 0 -2 11 10 24 13 13 25 42 28 66 7
49 13 44 46 -38z m941 -84 c-4 -6 -10 -5 -15 3 -14 22 -10 33 6 19 8 -7 12
-17 9 -22z m-174 -182 c-8 -8 -13 -7 -20 4 -12 20 -1 33 16 19 11 -9 12 -15 4
-23z m-49 7 c13 -15 12 -15 -8 -4 -24 12 -29 21 -14 21 5 0 15 -7 22 -17z
m693 -38 c-3 -7 -1 -16 5 -20 16 -9 13 -28 -3 -22 -10 4 -13 1 -10 -7 3 -9 -6
-18 -23 -24 -26 -9 -26 -10 -8 -17 11 -5 29 -16 40 -25 25 -22 55 -32 55 -20
0 6 7 10 15 10 12 0 11 -4 -5 -20 -11 -11 -27 -20 -35 -20 -18 0 -20 -16 -3
-26 6 -4 17 0 23 10 7 9 19 14 29 10 21 -8 20 -21 -1 -33 -19 -10 -15 -21 9
-25 14 -2 68 -49 68 -60 0 -3 -7 -6 -15 -6 -22 0 -18 -28 5 -35 27 -9 25 -19
-5 -33 -14 -6 -25 -16 -25 -21 0 -9 30 -25 43 -23 4 1 7 -2 7 -8 0 -5 -8 -10
-17 -10 -9 0 -25 -8 -35 -17 -11 -9 -31 -17 -45 -18 -16 0 -27 -6 -28 -16 -3
-18 29 -19 46 -2 11 11 49 6 49 -7 0 -14 -27 -19 -39 -7 -8 8 -11 3 -11 -21 0
-23 5 -32 16 -32 9 0 14 -5 12 -12 -7 -20 -28 -21 -35 -1 -12 35 -24 43 -44
32 -23 -12 -25 -29 -2 -29 18 0 53 -28 53 -43 0 -5 -10 -7 -22 -4 -27 7 -63
-16 -53 -33 4 -7 16 -10 26 -7 11 3 17 1 13 -4 -3 -5 0 -9 7 -9 10 0 10 -3 1
-12 -10 -10 -14 -10 -21 0 -9 16 -41 5 -41 -14 0 -7 14 -21 30 -29 17 -9 28
-21 24 -26 -4 -8 -9 -7 -14 1 -10 16 -50 3 -50 -16 0 -8 7 -17 17 -21 14 -5
12 -10 -12 -29 -24 -19 -27 -25 -16 -38 15 -17 7 -36 -15 -36 -27 0 -9 -24 24
-31 31 -6 54 13 32 26 -12 7 -13 25 -2 25 7 0 32 -47 32 -62 0 -4 -7 -8 -15
-8 -8 0 -15 -4 -15 -9 0 -15 36 -23 75 -15 30 5 34 4 29 -10 -4 -10 -13 -15
-20 -12 -10 4 -14 -3 -14 -19 0 -14 5 -25 10 -25 18 0 10 -29 -9 -35 -12 -4
-18 -12 -14 -21 6 -17 -8 -19 -24 -3 -8 8 -17 8 -32 0 -21 -12 -29 -41 -11
-41 6 0 10 -7 10 -15 0 -8 -5 -15 -11 -15 -7 0 -17 -7 -24 -17 -8 -11 -14 -13
-19 -5 -4 7 -2 12 4 12 6 0 8 5 4 11 -3 6 -1 14 5 18 8 5 7 12 -2 25 -12 16
-16 17 -36 5 -17 -11 -21 -20 -17 -41 5 -24 2 -27 -33 -33 -22 -4 -47 -13 -58
-20 -24 -19 -33 -18 -33 1 0 8 -14 20 -30 26 -28 9 -30 13 -24 47 6 36 48 91
69 91 7 0 24 11 40 24 26 23 27 24 11 48 -18 27 -83 45 -100 28 -10 -10 40
-34 54 -25 5 3 11 1 15 -5 7 -11 -35 -31 -47 -23 -5 2 -8 -1 -8 -6 0 -6 -4
-11 -10 -11 -5 0 -10 8 -10 18 -1 16 -1 16 -10 0 -9 -15 -14 -14 -42 12 -22
20 -34 26 -39 18 -4 -7 6 -24 23 -40 19 -17 28 -34 24 -44 -3 -8 -2 -12 4 -9
17 10 11 -19 -9 -44 -10 -14 -17 -30 -14 -37 4 -10 -24 -23 -67 -29 -8 -1 -23
-6 -32 -10 -14 -5 -18 -2 -18 14 0 22 -14 28 -25 10 -5 -6 -22 -8 -47 -4 -47
8 -45 -10 2 -20 17 -4 37 -16 46 -28 11 -15 18 -18 21 -9 3 6 19 12 36 12 18
0 48 4 66 10 28 8 38 6 53 -7 10 -9 18 -24 18 -33 0 -10 9 -20 20 -23 11 -3
20 -10 20 -16 0 -6 -7 -8 -15 -4 -9 3 -24 -2 -35 -12 -26 -23 -47 -9 -24 16
13 14 15 22 6 31 -17 17 -44 1 -41 -24 4 -32 -30 -71 -48 -56 -11 9 -18 8 -29
-4 -24 -24 -60 -10 -111 43 -27 27 -56 49 -65 49 -10 0 -18 7 -18 15 0 8 7 15
16 15 9 0 14 6 11 13 -2 6 -16 11 -31 9 -25 -3 -27 0 -24 25 3 26 1 28 -35 27
-33 -1 -36 1 -25 15 7 9 17 19 22 22 5 4 -1 10 -14 14 -18 6 -21 12 -16 36 5
24 2 29 -15 29 -11 0 -18 -4 -15 -9 7 -10 -20 -9 -30 2 -4 4 1 16 10 26 24 26
12 42 -26 34 -28 -6 -30 -5 -19 15 6 11 21 22 33 24 12 2 23 9 26 16 5 17 -35
16 -41 -2 -3 -9 -15 -12 -31 -9 -33 7 -33 19 -1 27 26 7 33 30 13 42 -6 4 -16
0 -23 -9 -14 -20 -25 -22 -25 -5 0 22 33 48 62 48 23 0 29 4 26 18 -4 16 -36
19 -48 3 -5 -7 -60 -12 -60 -5 0 2 16 12 36 21 20 10 35 23 33 28 -4 11 -9 11
-54 0 l-30 -7 31 20 c17 11 40 22 50 24 25 4 26 44 2 40 -22 -4 -24 14 -3 22
9 3 23 -6 37 -24 13 -18 31 -30 45 -30 16 0 21 -4 17 -15 -9 -21 25 -19 42 3
13 16 14 16 20 -5 8 -28 11 -28 34 -1 15 19 20 20 34 9 16 -13 18 -11 20 19 1
8 10 15 21 15 14 0 19 6 17 20 -2 11 -3 28 -3 38 0 29 -24 19 -42 -18 -13 -27
-23 -35 -42 -35 -36 0 -82 26 -90 50 -6 19 -35 27 -48 13 -4 -3 -17 -8 -30 -9
-12 -2 -38 -5 -57 -8 -20 -4 -30 -2 -25 3 6 5 19 11 30 13 26 4 33 38 8 38
-11 0 -25 -6 -33 -12 -7 -7 -6 -2 3 12 20 29 22 54 5 47 -8 -3 -14 5 -14 20
-2 21 0 22 10 8 11 -15 13 -15 25 -2 10 12 10 21 1 38 -7 13 -8 19 -1 15 12
-8 30 24 24 41 -3 7 3 16 11 19 10 4 14 13 11 23 -3 9 10 40 30 70 19 29 35
54 35 56 0 8 57 62 120 112 36 29 83 58 105 64 22 7 76 23 120 36 98 30 187
39 240 24 32 -8 42 -8 54 3 17 17 62 1 55 -19z m-739 -56 c-4 -5 3 -9 15 -9
12 0 19 -4 16 -9 -10 -16 -46 0 -46 21 0 10 5 16 10 13 6 -4 8 -11 5 -16z m75
11 c0 -5 -7 -10 -15 -10 -8 0 -15 5 -15 10 0 6 7 10 15 10 8 0 15 -4 15 -10z
m688 -48 c2 -7 -3 -12 -12 -12 -9 0 -16 7 -16 16 0 17 22 14 28 -4z m122 -133
c0 -5 -4 -9 -10 -9 -5 0 -10 7 -10 16 0 8 5 12 10 9 6 -3 10 -10 10 -16z m70
-99 c0 -5 -7 -10 -15 -10 -8 0 -15 5 -15 10 0 6 7 10 15 10 8 0 15 -4 15 -10z
m-1172 -127 c38 -30 -5 -182 -75 -264 -16 -19 -41 -51 -56 -71 -16 -21 -34
-38 -42 -38 -9 0 -12 -6 -8 -16 4 -10 -1 -17 -15 -21 -12 -3 -24 -14 -27 -24
-7 -21 -25 -26 -25 -7 0 6 7 20 16 30 14 14 15 20 4 33 -11 13 -9 19 9 38 11
13 21 31 21 40 0 10 7 20 15 23 8 4 15 12 15 20 0 8 3 14 8 14 4 0 8 16 10 36
1 24 13 47 37 72 18 20 36 46 39 58 12 48 49 119 53 104 3 -8 12 -21 21 -27z
m-564 -47 c-9 -14 -20 -26 -25 -26 -5 0 1 16 13 35 13 19 24 30 26 25 2 -5 -4
-20 -14 -34z m-899 2 c-27 -11 -75 -32 -105 -45 -80 -36 -243 -84 -230 -68 8
10 7 14 -2 18 -7 3 -2 6 12 6 38 2 113 24 230 70 107 41 185 57 95 19z m806
-92 c-6 -14 -15 -26 -20 -26 -5 0 -3 14 6 31 18 36 28 33 14 -5z m1703 -47
c-3 -5 -10 -7 -15 -3 -5 3 -7 10 -3 15 3 5 10 7 15 3 5 -3 7 -10 3 -15z
m-2869 1 c-3 -5 -14 -10 -23 -10 -15 0 -15 2 -2 10 20 13 33 13 25 0z m2860
-60 c3 -5 1 -10 -4 -10 -6 0 -11 5 -11 10 0 6 2 10 4 10 3 0 8 -4 11 -10z
m-2638 -85 c3 -10 -108 -48 -115 -40 -6 5 18 28 43 43 23 14 67 12 72 -3z
m600 -7 c-3 -8 -6 -5 -6 6 -1 11 2 17 5 13 3 -3 4 -12 1 -19z m-237 -28 c0 -5
-5 -10 -11 -10 -5 0 -7 5 -4 10 3 6 8 10 11 10 2 0 4 -4 4 -10z m-475 -47 c3
-15 15 -39 26 -55 11 -15 17 -32 14 -38 -3 -5 -1 -10 4 -10 6 0 11 -7 11 -15
0 -8 5 -15 10 -15 6 0 9 -3 8 -7 0 -5 2 -16 7 -26 19 -43 -6 -21 -50 45 -35
53 -48 83 -50 115 -4 46 8 50 20 6z m722 15 c-3 -8 -6 -5 -6 6 -1 11 2 17 5
13 3 -3 4 -12 1 -19z m16 -30 c6 -18 -4 -81 -14 -92 -5 -6 -9 14 -9 47 0 52
12 75 23 45z m2017 -49 c0 -6 -4 -7 -10 -4 -5 3 -10 11 -10 16 0 6 5 7 10 4 6
-3 10 -11 10 -16z m-1316 -24 c-7 -16 -24 -21 -24 -6 0 8 7 13 27 20 1 1 0 -6
-3 -14z m-61 -70 c-3 -9 -8 -14 -10 -11 -3 3 -2 9 2 15 9 16 15 13 8 -4z
m1477 11 c0 -3 -4 -8 -10 -11 -5 -3 -10 -1 -10 4 0 6 5 11 10 11 6 0 10 -2 10
-4z m-890 -30 c0 -16 -18 -31 -27 -22 -8 8 5 36 17 36 5 0 10 -6 10 -14z
m-1189 -40 c-13 -32 -16 -33 -18 -4 -1 12 3 26 10 30 17 10 19 4 8 -26z m580
11 c-13 -13 -26 -3 -16 12 3 6 11 8 17 5 6 -4 6 -10 -1 -17z m1401 -42 c0 -5
-5 -11 -11 -13 -6 -2 -11 4 -11 13 0 9 5 15 11 13 6 -2 11 -8 11 -13z m-1462
-24 c0 -6 -4 -13 -10 -16 -5 -3 -10 1 -10 9 0 9 5 16 10 16 6 0 10 -4 10 -9z
m-10 -45 c0 5 4 2 10 -6 8 -12 10 -12 16 3 8 22 25 12 17 -11 -7 -21 -102
-141 -158 -200 -46 -50 -82 -74 -72 -49 4 11 2 14 -9 10 -25 -9 -16 45 19 108
17 32 39 61 47 64 8 3 35 27 60 54 40 44 46 48 58 34 6 -9 12 -13 12 -7z m780
-391 c-7 -8 -17 -15 -23 -15 -5 0 -2 9 8 20 21 23 35 19 15 -5z m-116 -21 c4
-12 14 -14 36 -9 33 7 36 4 18 -24 -6 -10 -19 -16 -28 -14 -10 3 -23 -6 -34
-22 -18 -27 -18 -27 6 -20 12 4 35 14 51 22 21 11 27 11 27 1 0 -7 12 -1 25
15 16 18 34 27 55 27 18 0 29 -4 25 -10 -3 -5 -15 -10 -25 -10 -21 0 -45 -34
-35 -50 3 -6 18 -10 33 -10 16 0 32 -8 39 -19 12 -19 53 -19 53 0 0 5 6 6 14
3 10 -4 13 -15 9 -40 -5 -27 -2 -34 11 -34 10 0 15 -4 12 -9 -4 -5 4 -7 15 -4
16 4 20 2 17 -8 -3 -8 -11 -14 -19 -15 -35 -2 -39 -5 -39 -29 0 -29 33 -35 48
-8 7 12 18 14 39 10 17 -3 35 -1 42 6 12 12 14 7 5 -16 -3 -9 -14 -12 -29 -10
-17 4 -27 -1 -35 -17 -7 -13 -17 -19 -27 -16 -9 4 -22 1 -29 -5 -18 -15 -36
-2 -29 21 3 10 1 21 -5 25 -16 10 -47 -4 -53 -23 -3 -15 -12 -17 -41 -14 -26
3 -36 1 -34 -8 2 -7 -3 -15 -9 -17 -7 -3 -13 1 -13 7 0 23 21 50 39 50 10 0
26 9 37 21 16 17 16 22 4 29 -23 14 -29 12 -41 -13 -8 -18 -17 -23 -34 -19
-15 2 -30 -3 -41 -16 -9 -11 -23 -18 -31 -15 -7 3 -21 -1 -31 -9 -9 -9 -29
-18 -44 -22 -16 -3 -28 -11 -28 -16 0 -6 -11 -10 -25 -10 -25 0 -38 -7 -74
-43 -11 -11 -21 -14 -25 -9 -9 15 4 42 20 42 19 0 27 2 39 12 6 4 24 19 41 33
18 14 39 25 47 25 8 0 26 9 41 21 14 11 26 17 26 14 0 -4 7 -1 16 6 9 8 22 14
30 14 7 0 23 9 36 21 13 11 28 19 34 17 11 -4 54 33 54 46 0 5 -7 12 -16 15
-19 7 -44 -10 -44 -30 0 -8 -10 -14 -24 -14 -14 0 -31 -9 -40 -21 -9 -13 -21
-19 -31 -16 -9 4 -24 -2 -36 -14 -11 -11 -24 -17 -28 -14 -14 8 -41 -5 -41
-20 0 -7 -10 -13 -22 -13 -13 1 -38 -3 -55 -7 -49 -11 -41 11 12 35 25 11 45
27 45 35 0 19 -19 20 -26 2 -5 -14 -64 -11 -64 3 0 10 66 60 79 60 6 0 11 7
11 15 0 19 -17 19 -27 0 -5 -9 -17 -12 -31 -8 -27 7 -28 20 -2 28 22 7 27 40
8 48 -10 4 -9 8 2 16 12 8 16 6 18 -9 4 -23 6 -24 33 -10 25 14 24 30 -1 30
-12 0 -17 5 -14 14 12 32 97 48 108 20z m209 -70 c9 -9 -4 -35 -14 -28 -5 3
-9 12 -9 20 0 14 12 19 23 8z m236 -237 c-2 -1 -12 -9 -21 -16 -15 -12 -18
-11 -18 3 0 10 8 16 22 16 12 0 19 -1 17 -3z m-219 -27 c0 -5 -9 -10 -21 -10
-11 0 -17 5 -14 10 3 6 13 10 21 10 8 0 14 -4 14 -10z m21 -191 l-9 -34 -1 31
c-1 17 2 34 6 37 12 13 14 -1 4 -34z"/>
<path d="M2200 3763 c0 -25 15 -38 25 -22 4 6 0 18 -9 27 -15 15 -16 15 -16
-5z"/>
<path d="M2185 3720 c-3 -5 -1 -10 4 -10 6 0 11 5 11 10 0 6 -2 10 -4 10 -3 0
-8 -4 -11 -10z"/>
<path d="M2427 3663 c-11 -19 -18 -93 -9 -93 6 0 14 9 17 20 4 11 14 19 22 18
9 -2 18 3 20 10 3 6 -2 12 -11 12 -9 0 -16 6 -16 14 0 17 -16 30 -23 19z"/>
<path d="M2470 3649 c0 -5 5 -7 10 -4 6 3 10 8 10 11 0 2 -4 4 -10 4 -5 0 -10
-5 -10 -11z"/>
<path d="M2537 3643 c-13 -12 -8 -65 5 -61 17 6 29 68 13 68 -6 0 -15 -3 -18
-7z"/>
<path d="M2607 3644 c-4 -4 -7 -18 -7 -30 0 -13 -4 -26 -10 -29 -15 -9 -12
-25 5 -31 22 -9 41 17 40 55 0 33 -14 49 -28 35z"/>
<path d="M2343 3627 c-24 -10 -30 -31 -14 -42 5 -3 13 0 16 5 5 7 12 5 21 -7
12 -16 13 -15 14 14 0 38 -7 44 -37 30z"/>
<path d="M2660 3596 c0 -8 5 -18 10 -21 6 -3 10 1 10 9 0 8 -4 18 -10 21 -5 3
-10 -1 -10 -9z"/>
<path d="M2245 3560 c-15 -17 -16 -24 -7 -45 14 -30 23 -31 47 -5 15 17 16 24
7 45 -14 30 -23 31 -47 5z"/>
<path d="M2352 3496 c0 -19 -3 -39 -6 -44 -3 -5 1 -15 9 -22 12 -10 18 -10 30
0 12 10 12 15 -2 36 -8 13 -13 33 -10 44 3 12 0 20 -8 20 -8 0 -13 -13 -13
-34z"/>
<path d="M2681 3507 c-14 -27 -9 -57 9 -57 16 0 23 27 13 56 l-9 26 -13 -25z"/>
<path d="M2405 3510 c-8 -13 21 -48 31 -38 3 4 -1 16 -9 28 -10 15 -17 18 -22
10z"/>
<path d="M2625 3480 c-3 -5 -1 -10 4 -10 6 0 11 5 11 10 0 6 -2 10 -4 10 -3 0
-8 -4 -11 -10z"/>
<path d="M2156 3464 c-10 -27 -7 -44 9 -44 8 0 15 -4 15 -10 0 -19 16 -10 34
21 13 22 14 30 4 28 -7 -2 -23 2 -35 9 -17 10 -22 9 -27 -4z"/>
<path d="M2320 3464 c0 -8 5 -12 10 -9 6 3 10 10 10 16 0 5 -4 9 -10 9 -5 0
-10 -7 -10 -16z"/>
<path d="M2471 3456 c-10 -12 -10 -19 2 -36 17 -24 25 -17 23 17 -3 31 -11 36
-25 19z"/>
<path d="M2270 3451 c0 -5 5 -13 10 -16 6 -3 10 -2 10 4 0 5 -4 13 -10 16 -5
3 -10 2 -10 -4z"/>
<path d="M2586 3441 c-3 -5 -3 -16 0 -25 7 -17 -11 -22 -21 -6 -10 16 -23 12
-35 -10 -8 -16 -5 -28 15 -60 28 -44 48 -48 53 -11 2 15 8 21 18 17 8 -3 17 1
21 9 11 30 -37 110 -51 86z"/>
<path d="M2303 3423 c-17 -6 -16 -31 1 -48 12 -12 16 -12 26 0 22 27 3 61 -27
48z"/>
<path d="M2420 3413 c0 -5 7 -18 15 -29 15 -18 15 -18 13 5 -3 23 -28 44 -28
24z"/>
<path d="M2110 3376 c0 -15 21 -26 48 -26 14 1 12 5 -7 20 -27 23 -41 25 -41
6z"/>
<path d="M2233 3370 c-7 -11 -13 -26 -13 -34 0 -8 -7 -22 -16 -30 -8 -9 -13
-20 -9 -25 3 -5 16 1 30 15 13 13 31 24 39 24 12 0 15 8 12 33 -4 37 -26 46
-43 17z"/>
<path d="M2390 3370 c0 -5 -7 -10 -15 -10 -19 0 -19 -21 0 -46 10 -13 14 -15
15 -5 0 8 7 19 16 25 9 7 12 18 8 29 -7 18 -24 23 -24 7z"/>
<path d="M2685 3340 c-12 -13 -14 -20 -5 -20 9 0 10 -10 6 -35 -9 -45 11 -55
61 -31 33 16 34 18 19 35 -12 13 -13 20 -5 28 7 7 9 19 6 27 -9 23 -60 20 -82
-4z"/>
<path d="M2306 3304 c-13 -12 -14 -19 -5 -30 16 -19 27 -18 25 4 0 9 5 16 12
14 16 -3 11 20 -5 25 -6 2 -18 -4 -27 -13z"/>
<path d="M2092 3298 c-15 -15 -16 -72 -2 -63 6 3 10 15 10 26 0 11 7 19 16 19
11 0 14 -6 9 -20 -4 -11 -2 -20 4 -20 13 0 25 45 16 59 -8 15 -38 14 -53 -1z"/>
<path d="M2421 3282 c-8 -16 -18 -21 -30 -17 -35 11 -34 -26 1 -56 53 -45 62
-36 50 46 -7 47 -9 49 -21 27z"/>
<path d="M2585 3274 c-20 -15 -20 -15 0 -20 13 -3 33 -32 55 -77 38 -78 64
-94 101 -61 25 22 24 58 -2 83 -18 17 -24 17 -47 6 -33 -18 -45 -10 -39 28 3
23 0 31 -15 35 -10 2 -18 8 -18 13 0 13 -12 11 -35 -7z m145 -118 c0 -8 -4
-17 -9 -21 -12 -7 -24 12 -16 25 9 15 25 12 25 -4z"/>
<path d="M2246 3260 c-19 -19 -19 -20 -1 -40 23 -25 27 -25 43 0 9 15 10 26 2
40 -13 24 -20 24 -44 0z"/>
<path d="M2196 3203 c-9 -10 -36 -72 -36 -84 0 -25 23 -3 44 41 16 34 20 50
12 50 -7 0 -16 -3 -20 -7z"/>
<path d="M2094 3190 c-18 -7 -21 -14 -15 -40 7 -37 10 -39 37 -20 45 33 28 79
-22 60z"/>
<path d="M2225 3120 c-3 -11 -13 -20 -21 -20 -21 0 -17 -38 5 -49 10 -6 21 -7
25 -4 3 3 6 1 6 -6 0 -22 44 -7 59 21 22 38 2 78 -38 78 -21 0 -32 -6 -36 -20z
m55 -30 c0 -11 -7 -20 -15 -20 -8 0 -15 9 -15 20 0 11 7 20 15 20 8 0 15 -9
15 -20z"/>
<path d="M2142 3058 c-15 -15 -16 -45 -1 -54 14 -8 29 14 29 44 0 24 -10 28
-28 10z"/>
<path d="M2316 3001 c-4 -7 -5 -15 -2 -18 9 -9 19 4 14 18 -4 11 -6 11 -12 0z"/>
<path d="M2170 2980 c-12 -7 -12 -12 -2 -22 9 -9 15 -9 24 0 8 8 9 15 2 22 -5
5 -15 6 -24 0z"/>
<path d="M2233 2958 c-5 -7 -10 -22 -11 -33 -1 -11 -3 -29 -4 -40 -2 -15 3
-20 20 -19 12 0 22 -5 22 -13 0 -28 18 -11 26 25 11 49 11 52 -1 51 -5 0 -12
9 -17 20 -8 24 -21 27 -35 9z"/>
<path d="M2925 3190 c3 -5 8 -10 11 -10 2 0 4 5 4 10 0 6 -5 10 -11 10 -5 0
-7 -4 -4 -10z"/>
<path d="M2990 3030 c0 -5 5 -10 11 -10 5 0 7 5 4 10 -3 6 -8 10 -11 10 -2 0
-4 -4 -4 -10z"/>
<path d="M2980 2896 c0 -9 5 -16 10 -16 6 0 10 4 10 9 0 6 -4 13 -10 16 -5 3
-10 -1 -10 -9z"/>
<path d="M1515 1800 c-3 -5 -1 -10 4 -10 6 0 11 5 11 10 0 6 -2 10 -4 10 -3 0
-8 -4 -11 -10z"/>
<path d="M1476 1755 c-4 -12 -1 -16 11 -13 18 3 21 20 5 26 -5 1 -12 -4 -16
-13z"/>
<path d="M1410 1687 c0 -8 7 -14 15 -14 8 0 15 6 15 14 0 7 -7 13 -15 13 -8 0
-15 -6 -15 -13z"/>
<path d="M1373 1645 c-6 -14 -7 -25 -2 -25 11 0 22 25 17 39 -1 6 -8 -1 -15
-14z"/>
<path d="M1345 1521 c-3 -5 -1 -12 5 -16 5 -3 10 1 10 9 0 18 -6 21 -15 7z"/>
<path d="M3035 2050 c-3 -5 1 -10 10 -10 9 0 13 5 10 10 -3 6 -8 10 -10 10 -2
0 -7 -4 -10 -10z"/>
<path d="M3090 1950 c0 -5 5 -10 10 -10 6 0 10 5 10 10 0 6 -4 10 -10 10 -5 0
-10 -4 -10 -10z"/>
<path d="M3135 1850 c-3 -5 3 -10 14 -10 11 0 23 5 26 10 3 6 -3 10 -14 10
-11 0 -23 -4 -26 -10z"/>
<path d="M3137 1793 c-13 -12 -7 -23 13 -23 11 0 20 7 20 15 0 15 -21 21 -33
8z"/>
<path d="M3065 1760 c-3 -5 -1 -10 4 -10 6 0 11 5 11 10 0 6 -2 10 -4 10 -3 0
-8 -4 -11 -10z"/>
<path d="M2295 1741 c-6 -11 9 -23 19 -14 9 9 7 23 -3 23 -6 0 -12 -4 -16 -9z"/>
<path d="M3045 1690 c3 -5 10 -10 16 -10 5 0 9 5 9 10 0 6 -7 10 -16 10 -8 0
-12 -4 -9 -10z"/>
<path d="M2272 1666 c2 -19 5 -22 15 -14 18 14 16 38 -2 38 -10 0 -14 -9 -13
-24z"/>
<path d="M2312 1643 c-10 -4 -10 -8 -1 -19 13 -16 29 -10 29 12 0 15 -6 16
-28 7z"/>
<path d="M3035 1629 c-10 -15 3 -25 16 -12 7 7 7 13 1 17 -6 3 -14 1 -17 -5z"/>
<path d="M3015 1560 c-3 -5 1 -10 9 -10 9 0 16 5 16 10 0 6 -4 10 -9 10 -6 0
-13 -4 -16 -10z"/>
<path d="M2935 1540 c-3 -5 1 -10 10 -10 9 0 13 5 10 10 -3 6 -8 10 -10 10 -2
0 -7 -4 -10 -10z"/>
<path d="M3005 1490 c-3 -5 3 -10 15 -10 12 0 18 5 15 10 -3 6 -10 10 -15 10
-5 0 -12 -4 -15 -10z"/>
<path d="M2310 1471 c0 -6 4 -12 9 -15 13 -8 42 4 35 15 -7 12 -44 12 -44 0z"/>
<path d="M2920 1476 c0 -2 7 -7 16 -10 8 -3 12 -2 9 4 -6 10 -25 14 -25 6z"/>
<path d="M2365 1430 c-3 -5 1 -10 10 -10 9 0 13 5 10 10 -3 6 -8 10 -10 10 -2
0 -7 -4 -10 -10z"/>
<path d="M2995 1421 c-3 -5 4 -13 16 -16 28 -9 36 1 10 14 -12 7 -22 7 -26 2z"/>
<path d="M2915 1400 c3 -5 11 -10 16 -10 6 0 7 5 4 10 -3 6 -11 10 -16 10 -6
0 -7 -4 -4 -10z"/>
<path d="M2966 1351 c-3 -5 3 -11 14 -14 21 -5 32 1 24 14 -7 12 -31 11 -38 0z"/>
<path d="M2906 1332 c-3 -6 -1 -14 5 -17 15 -10 25 3 12 16 -7 7 -13 7 -17 1z"/>
<path d="M2735 1290 c-3 -5 1 -13 10 -16 22 -9 29 1 11 15 -10 8 -16 9 -21 1z"/>
<path d="M2953 1271 c-11 -18 -10 -18 18 -8 32 13 39 27 11 27 -9 0 -23 -9
-29 -19z"/>
<path d="M3033 1235 c-7 -20 2 -29 21 -22 9 4 13 13 10 22 -8 19 -23 19 -31 0z"/>
<path d="M3097 1183 c-13 -12 -7 -33 8 -33 8 0 15 -5 15 -12 0 -6 6 -3 14 8
21 27 -13 61 -37 37z"/>
<path d="M3014 1159 c-3 -6 -1 -16 5 -22 6 -6 11 -7 11 -1 0 5 5 2 10 -6 7
-12 12 -12 21 -3 9 9 9 16 -1 28 -15 18 -36 20 -46 4z"/>
<path d="M2720 1140 c0 -5 7 -10 15 -10 8 0 15 5 15 10 0 6 -7 10 -15 10 -8 0
-15 -4 -15 -10z"/>
<path d="M2940 1140 c-12 -8 -12 -10 3 -16 21 -8 35 2 21 16 -5 5 -15 6 -24 0z"/>
<path d="M2870 1119 c0 -5 5 -7 10 -4 6 3 10 8 10 11 0 2 -4 4 -10 4 -5 0 -10
-5 -10 -11z"/>
<path d="M2490 1097 c0 -19 16 -31 24 -18 3 5 -1 14 -9 21 -12 10 -15 10 -15
-3z"/>
<path d="M2568 1103 c7 -3 16 -2 19 1 4 3 -2 6 -13 5 -11 0 -14 -3 -6 -6z"/>
<path d="M2706 1071 c-16 -17 -15 -18 9 -14 25 5 32 17 16 27 -4 3 -16 -3 -25
-13z"/>
<path d="M2930 1069 c-13 -8 -13 -10 0 -19 32 -21 55 -5 27 18 -8 7 -18 7 -27
1z"/>
<path d="M2850 1045 c0 -8 9 -15 20 -15 24 0 27 15 4 24 -22 9 -24 8 -24 -9z"/>
<path d="M2550 965 c0 -9 6 -12 15 -9 8 4 15 10 15 15 0 5 -7 9 -15 9 -8 0
-15 -7 -15 -15z"/>
<path d="M2687 943 c-4 -3 -7 -12 -7 -20 0 -11 5 -11 20 -3 11 6 20 15 20 20
0 11 -23 13 -33 3z"/>
<path d="M2617 923 c-13 -12 -7 -23 13 -23 11 0 20 7 20 15 0 15 -21 21 -33 8z"/>
<path d="M2300 580 c-12 -7 -12 -12 -3 -21 9 -9 16 -9 27 1 26 21 5 39 -24 20z"/>
<path d="M2303 513 c-21 -7 -15 -33 7 -33 11 0 20 3 20 8 0 15 -15 29 -27 25z"/>
<path d="M2422 498 c-31 -31 -2 -51 34 -23 16 13 17 16 4 25 -19 13 -24 12
-38 -2z"/>
<path d="M2356 461 c-9 -10 -16 -23 -16 -29 0 -26 52 -5 56 22 3 22 -22 27
-40 7z"/>
<path d="M2285 420 c-3 -5 -4 -14 -1 -19 9 -13 46 -1 46 15 0 16 -36 19 -45 4z"/>
<path d="M2560 400 c-14 -26 -1 -44 24 -34 10 4 16 15 14 27 -4 29 -24 32 -38
7z"/>
<path d="M2350 4372 c-30 -10 -50 -21 -45 -24 6 -3 28 0 50 8 22 8 45 16 52
18 7 1 16 5 19 9 12 11 -17 7 -76 -11z"/>
<path d="M588 3703 c-2 -38 -1 -77 3 -88 5 -11 8 19 8 68 1 48 -1 87 -3 87 -2
0 -6 -30 -8 -67z"/>
<path d="M455 3647 c-10 -16 -14 -38 -11 -68 7 -66 8 -260 2 -267 -3 -3 -16 0
-29 6 -34 18 -130 31 -148 21 -9 -4 -19 -16 -21 -26 -5 -19 -7 -19 144 -25 34
-2 54 -7 50 -13 -3 -5 4 -1 17 9 14 13 18 22 10 27 -7 4 -8 9 -1 13 15 9 14
266 -1 266 -8 0 -8 3 -2 8 10 6 18 72 9 72 -2 0 -10 -11 -19 -23z"/>
<path d="M273 3083 c9 -2 25 -2 35 0 9 3 1 5 -18 5 -19 0 -27 -2 -17 -5z"/>
<path d="M4475 2843 c-100 -23 -98 -22 -92 -61 26 -179 32 -212 40 -212 4 0 5
17 0 38 -8 40 -8 54 -2 124 3 30 9 48 17 48 9 0 10 -5 2 -19 -15 -29 -13 -54
5 -47 9 3 15 0 15 -10 0 -8 3 -13 8 -10 4 2 25 -4 47 -14 40 -18 40 -18 43 2
2 11 -4 53 -13 94 -17 77 -19 79 -70 67z"/>
<path d="M780 2725 c0 -32 4 -45 14 -45 8 0 17 -6 19 -12 3 -7 6 6 6 29 1 50
-7 73 -25 73 -10 0 -14 -13 -14 -45z"/>
<path d="M4517 2653 c-3 -5 -1 -17 3 -27 4 -14 9 -16 14 -8 4 7 11 10 16 7 4
-3 11 2 14 11 3 8 2 12 -4 9 -6 -3 -10 -1 -10 4 0 12 -27 15 -33 4z"/>
<path d="M823 2605 c0 -22 2 -30 4 -17 2 12 2 30 0 40 -3 9 -5 -1 -4 -23z"/>
<path d="M4495 2570 c-3 -5 -5 -10 -3 -11 33 -8 38 -7 27 7 -14 17 -16 17 -24
4z"/>
<path d="M4551 2539 c-1 -9 5 -22 13 -29 12 -9 15 -8 13 9 0 11 -4 18 -8 15
-4 -2 -10 2 -12 8 -4 9 -6 7 -6 -3z"/>
<path d="M4422 2505 c0 -16 2 -22 5 -12 2 9 2 23 0 30 -3 6 -5 -1 -5 -18z"/>
<path d="M832 2485 c0 -16 2 -22 5 -12 2 9 2 23 0 30 -3 6 -5 -1 -5 -18z"/>
<path d="M4560 2458 c0 -4 7 -8 15 -8 8 0 15 4 15 8 0 5 -7 9 -15 9 -8 0 -15
-4 -15 -9z"/>
<path d="M870 2450 c0 -5 6 -10 13 -10 6 0 22 -3 35 -6 16 -5 22 -2 22 10 0
12 -9 16 -35 16 -19 0 -35 -4 -35 -10z"/>
<path d="M4561 2384 c0 -11 3 -14 6 -6 3 7 2 16 -1 19 -3 4 -6 -2 -5 -13z"/>
<path d="M4265 2362 c16 -15 95 -22 95 -9 0 7 -21 13 -53 15 -32 2 -48 0 -42
-6z"/>
<path d="M841 2294 c0 -11 3 -14 6 -6 3 7 2 16 -1 19 -3 4 -6 -2 -5 -13z"/>
<path d="M796 2224 c-3 -9 -6 -28 -6 -44 0 -21 5 -29 24 -32 22 -4 25 -1 28
32 4 49 -31 83 -46 44z"/>
<path d="M4490 2168 c-19 -29 -43 -65 -53 -80 l-19 -28 69 0 c82 0 98 8 84 41
-5 13 -15 45 -21 72 -7 26 -15 47 -19 47 -3 0 -22 -24 -41 -52z"/>
<path d="M853 2165 c0 -22 2 -30 4 -17 2 12 2 30 0 40 -3 9 -5 -1 -4 -23z"/>
<path d="M800 2015 c0 -42 2 -45 26 -45 24 0 26 3 20 31 -3 17 -6 38 -6 45 0
8 -9 14 -20 14 -17 0 -20 -7 -20 -45z"/>
</g>
</svg>
